<?xml version="1.0" encoding="utf-8" standalone="no"?>
<!DOCTYPE svg PUBLIC "-//W3C//DTD SVG 1.1//EN"
  "http://www.w3.org/Graphics/SVG/1.1/DTD/svg11.dtd">
<!-- Created with matplotlib (https://matplotlib.org/) -->
<svg height="720pt" version="1.1" viewBox="0 0 1800 720" width="1800pt" xmlns="http://www.w3.org/2000/svg" xmlns:xlink="http://www.w3.org/1999/xlink">
 <defs>
  <style type="text/css">
*{stroke-linecap:butt;stroke-linejoin:round;}
  </style>
 </defs>
 <g id="figure_1">
  <g id="patch_1">
   <path d="M 0 720 
L 1800 720 
L 1800 0 
L 0 0 
z
" style="fill:#ffffff;"/>
  </g>
  <g id="axes_1">
   <g id="patch_2">
    <path d="M 63.47 678.04 
L 1789.2 678.04 
L 1789.2 26.88 
L 63.47 26.88 
z
" style="fill:#ffffff;"/>
   </g>
   <g id="matplotlib.axis_1">
    <g id="xtick_1">
     <g id="line2d_1">
      <defs>
       <path d="M 0 0 
L 0 3.5 
" id="m5dc40a2d46" style="stroke:#000000;stroke-width:0.8;"/>
      </defs>
      <g>
       <use style="stroke:#000000;stroke-width:0.8;" x="139.817686" xlink:href="#m5dc40a2d46" y="678.04"/>
      </g>
     </g>
     <g id="text_1">
      <!-- 0 -->
      <defs>
       <path d="M 31.78125 66.40625 
Q 24.171875 66.40625 20.328125 58.90625 
Q 16.5 51.421875 16.5 36.375 
Q 16.5 21.390625 20.328125 13.890625 
Q 24.171875 6.390625 31.78125 6.390625 
Q 39.453125 6.390625 43.28125 13.890625 
Q 47.125 21.390625 47.125 36.375 
Q 47.125 51.421875 43.28125 58.90625 
Q 39.453125 66.40625 31.78125 66.40625 
z
M 31.78125 74.21875 
Q 44.046875 74.21875 50.515625 64.515625 
Q 56.984375 54.828125 56.984375 36.375 
Q 56.984375 17.96875 50.515625 8.265625 
Q 44.046875 -1.421875 31.78125 -1.421875 
Q 19.53125 -1.421875 13.0625 8.265625 
Q 6.59375 17.96875 6.59375 36.375 
Q 6.59375 54.828125 13.0625 64.515625 
Q 19.53125 74.21875 31.78125 74.21875 
z
" id="DejaVuSans-48"/>
      </defs>
      <g transform="translate(136.636436 692.638438)scale(0.1 -0.1)">
       <use xlink:href="#DejaVuSans-48"/>
      </g>
     </g>
    </g>
    <g id="xtick_2">
     <g id="line2d_2">
      <g>
       <use style="stroke:#000000;stroke-width:0.8;" x="349.276358" xlink:href="#m5dc40a2d46" y="678.04"/>
      </g>
     </g>
     <g id="text_2">
      <!-- 100 -->
      <defs>
       <path d="M 12.40625 8.296875 
L 28.515625 8.296875 
L 28.515625 63.921875 
L 10.984375 60.40625 
L 10.984375 69.390625 
L 28.421875 72.90625 
L 38.28125 72.90625 
L 38.28125 8.296875 
L 54.390625 8.296875 
L 54.390625 0 
L 12.40625 0 
z
" id="DejaVuSans-49"/>
      </defs>
      <g transform="translate(339.732608 692.638438)scale(0.1 -0.1)">
       <use xlink:href="#DejaVuSans-49"/>
       <use x="63.623047" xlink:href="#DejaVuSans-48"/>
       <use x="127.246094" xlink:href="#DejaVuSans-48"/>
      </g>
     </g>
    </g>
    <g id="xtick_3">
     <g id="line2d_3">
      <g>
       <use style="stroke:#000000;stroke-width:0.8;" x="558.73503" xlink:href="#m5dc40a2d46" y="678.04"/>
      </g>
     </g>
     <g id="text_3">
      <!-- 200 -->
      <defs>
       <path d="M 19.1875 8.296875 
L 53.609375 8.296875 
L 53.609375 0 
L 7.328125 0 
L 7.328125 8.296875 
Q 12.9375 14.109375 22.625 23.890625 
Q 32.328125 33.6875 34.8125 36.53125 
Q 39.546875 41.84375 41.421875 45.53125 
Q 43.3125 49.21875 43.3125 52.78125 
Q 43.3125 58.59375 39.234375 62.25 
Q 35.15625 65.921875 28.609375 65.921875 
Q 23.96875 65.921875 18.8125 64.3125 
Q 13.671875 62.703125 7.8125 59.421875 
L 7.8125 69.390625 
Q 13.765625 71.78125 18.9375 73 
Q 24.125 74.21875 28.421875 74.21875 
Q 39.75 74.21875 46.484375 68.546875 
Q 53.21875 62.890625 53.21875 53.421875 
Q 53.21875 48.921875 51.53125 44.890625 
Q 49.859375 40.875 45.40625 35.40625 
Q 44.1875 33.984375 37.640625 27.21875 
Q 31.109375 20.453125 19.1875 8.296875 
z
" id="DejaVuSans-50"/>
      </defs>
      <g transform="translate(549.19128 692.638438)scale(0.1 -0.1)">
       <use xlink:href="#DejaVuSans-50"/>
       <use x="63.623047" xlink:href="#DejaVuSans-48"/>
       <use x="127.246094" xlink:href="#DejaVuSans-48"/>
      </g>
     </g>
    </g>
    <g id="xtick_4">
     <g id="line2d_4">
      <g>
       <use style="stroke:#000000;stroke-width:0.8;" x="768.193703" xlink:href="#m5dc40a2d46" y="678.04"/>
      </g>
     </g>
     <g id="text_4">
      <!-- 300 -->
      <defs>
       <path d="M 40.578125 39.3125 
Q 47.65625 37.796875 51.625 33 
Q 55.609375 28.21875 55.609375 21.1875 
Q 55.609375 10.40625 48.1875 4.484375 
Q 40.765625 -1.421875 27.09375 -1.421875 
Q 22.515625 -1.421875 17.65625 -0.515625 
Q 12.796875 0.390625 7.625 2.203125 
L 7.625 11.71875 
Q 11.71875 9.328125 16.59375 8.109375 
Q 21.484375 6.890625 26.8125 6.890625 
Q 36.078125 6.890625 40.9375 10.546875 
Q 45.796875 14.203125 45.796875 21.1875 
Q 45.796875 27.640625 41.28125 31.265625 
Q 36.765625 34.90625 28.71875 34.90625 
L 20.21875 34.90625 
L 20.21875 43.015625 
L 29.109375 43.015625 
Q 36.375 43.015625 40.234375 45.921875 
Q 44.09375 48.828125 44.09375 54.296875 
Q 44.09375 59.90625 40.109375 62.90625 
Q 36.140625 65.921875 28.71875 65.921875 
Q 24.65625 65.921875 20.015625 65.03125 
Q 15.375 64.15625 9.8125 62.3125 
L 9.8125 71.09375 
Q 15.4375 72.65625 20.34375 73.4375 
Q 25.25 74.21875 29.59375 74.21875 
Q 40.828125 74.21875 47.359375 69.109375 
Q 53.90625 64.015625 53.90625 55.328125 
Q 53.90625 49.265625 50.4375 45.09375 
Q 46.96875 40.921875 40.578125 39.3125 
z
" id="DejaVuSans-51"/>
      </defs>
      <g transform="translate(758.649953 692.638438)scale(0.1 -0.1)">
       <use xlink:href="#DejaVuSans-51"/>
       <use x="63.623047" xlink:href="#DejaVuSans-48"/>
       <use x="127.246094" xlink:href="#DejaVuSans-48"/>
      </g>
     </g>
    </g>
    <g id="xtick_5">
     <g id="line2d_5">
      <g>
       <use style="stroke:#000000;stroke-width:0.8;" x="977.652375" xlink:href="#m5dc40a2d46" y="678.04"/>
      </g>
     </g>
     <g id="text_5">
      <!-- 400 -->
      <defs>
       <path d="M 37.796875 64.3125 
L 12.890625 25.390625 
L 37.796875 25.390625 
z
M 35.203125 72.90625 
L 47.609375 72.90625 
L 47.609375 25.390625 
L 58.015625 25.390625 
L 58.015625 17.1875 
L 47.609375 17.1875 
L 47.609375 0 
L 37.796875 0 
L 37.796875 17.1875 
L 4.890625 17.1875 
L 4.890625 26.703125 
z
" id="DejaVuSans-52"/>
      </defs>
      <g transform="translate(968.108625 692.638438)scale(0.1 -0.1)">
       <use xlink:href="#DejaVuSans-52"/>
       <use x="63.623047" xlink:href="#DejaVuSans-48"/>
       <use x="127.246094" xlink:href="#DejaVuSans-48"/>
      </g>
     </g>
    </g>
    <g id="xtick_6">
     <g id="line2d_6">
      <g>
       <use style="stroke:#000000;stroke-width:0.8;" x="1187.111047" xlink:href="#m5dc40a2d46" y="678.04"/>
      </g>
     </g>
     <g id="text_6">
      <!-- 500 -->
      <defs>
       <path d="M 10.796875 72.90625 
L 49.515625 72.90625 
L 49.515625 64.59375 
L 19.828125 64.59375 
L 19.828125 46.734375 
Q 21.96875 47.46875 24.109375 47.828125 
Q 26.265625 48.1875 28.421875 48.1875 
Q 40.625 48.1875 47.75 41.5 
Q 54.890625 34.8125 54.890625 23.390625 
Q 54.890625 11.625 47.5625 5.09375 
Q 40.234375 -1.421875 26.90625 -1.421875 
Q 22.3125 -1.421875 17.546875 -0.640625 
Q 12.796875 0.140625 7.71875 1.703125 
L 7.71875 11.625 
Q 12.109375 9.234375 16.796875 8.0625 
Q 21.484375 6.890625 26.703125 6.890625 
Q 35.15625 6.890625 40.078125 11.328125 
Q 45.015625 15.765625 45.015625 23.390625 
Q 45.015625 31 40.078125 35.4375 
Q 35.15625 39.890625 26.703125 39.890625 
Q 22.75 39.890625 18.8125 39.015625 
Q 14.890625 38.140625 10.796875 36.28125 
z
" id="DejaVuSans-53"/>
      </defs>
      <g transform="translate(1177.567297 692.638438)scale(0.1 -0.1)">
       <use xlink:href="#DejaVuSans-53"/>
       <use x="63.623047" xlink:href="#DejaVuSans-48"/>
       <use x="127.246094" xlink:href="#DejaVuSans-48"/>
      </g>
     </g>
    </g>
    <g id="xtick_7">
     <g id="line2d_7">
      <g>
       <use style="stroke:#000000;stroke-width:0.8;" x="1396.569719" xlink:href="#m5dc40a2d46" y="678.04"/>
      </g>
     </g>
     <g id="text_7">
      <!-- 600 -->
      <defs>
       <path d="M 33.015625 40.375 
Q 26.375 40.375 22.484375 35.828125 
Q 18.609375 31.296875 18.609375 23.390625 
Q 18.609375 15.53125 22.484375 10.953125 
Q 26.375 6.390625 33.015625 6.390625 
Q 39.65625 6.390625 43.53125 10.953125 
Q 47.40625 15.53125 47.40625 23.390625 
Q 47.40625 31.296875 43.53125 35.828125 
Q 39.65625 40.375 33.015625 40.375 
z
M 52.59375 71.296875 
L 52.59375 62.3125 
Q 48.875 64.0625 45.09375 64.984375 
Q 41.3125 65.921875 37.59375 65.921875 
Q 27.828125 65.921875 22.671875 59.328125 
Q 17.53125 52.734375 16.796875 39.40625 
Q 19.671875 43.65625 24.015625 45.921875 
Q 28.375 48.1875 33.59375 48.1875 
Q 44.578125 48.1875 50.953125 41.515625 
Q 57.328125 34.859375 57.328125 23.390625 
Q 57.328125 12.15625 50.6875 5.359375 
Q 44.046875 -1.421875 33.015625 -1.421875 
Q 20.359375 -1.421875 13.671875 8.265625 
Q 6.984375 17.96875 6.984375 36.375 
Q 6.984375 53.65625 15.1875 63.9375 
Q 23.390625 74.21875 37.203125 74.21875 
Q 40.921875 74.21875 44.703125 73.484375 
Q 48.484375 72.75 52.59375 71.296875 
z
" id="DejaVuSans-54"/>
      </defs>
      <g transform="translate(1387.025969 692.638438)scale(0.1 -0.1)">
       <use xlink:href="#DejaVuSans-54"/>
       <use x="63.623047" xlink:href="#DejaVuSans-48"/>
       <use x="127.246094" xlink:href="#DejaVuSans-48"/>
      </g>
     </g>
    </g>
    <g id="xtick_8">
     <g id="line2d_8">
      <g>
       <use style="stroke:#000000;stroke-width:0.8;" x="1606.028391" xlink:href="#m5dc40a2d46" y="678.04"/>
      </g>
     </g>
     <g id="text_8">
      <!-- 700 -->
      <defs>
       <path d="M 8.203125 72.90625 
L 55.078125 72.90625 
L 55.078125 68.703125 
L 28.609375 0 
L 18.3125 0 
L 43.21875 64.59375 
L 8.203125 64.59375 
z
" id="DejaVuSans-55"/>
      </defs>
      <g transform="translate(1596.484641 692.638438)scale(0.1 -0.1)">
       <use xlink:href="#DejaVuSans-55"/>
       <use x="63.623047" xlink:href="#DejaVuSans-48"/>
       <use x="127.246094" xlink:href="#DejaVuSans-48"/>
      </g>
     </g>
    </g>
    <g id="text_9">
     <!-- Frame Number -->
     <defs>
      <path d="M 9.8125 72.90625 
L 51.703125 72.90625 
L 51.703125 64.59375 
L 19.671875 64.59375 
L 19.671875 43.109375 
L 48.578125 43.109375 
L 48.578125 34.8125 
L 19.671875 34.8125 
L 19.671875 0 
L 9.8125 0 
z
" id="DejaVuSans-70"/>
      <path d="M 41.109375 46.296875 
Q 39.59375 47.171875 37.8125 47.578125 
Q 36.03125 48 33.890625 48 
Q 26.265625 48 22.1875 43.046875 
Q 18.109375 38.09375 18.109375 28.8125 
L 18.109375 0 
L 9.078125 0 
L 9.078125 54.6875 
L 18.109375 54.6875 
L 18.109375 46.1875 
Q 20.953125 51.171875 25.484375 53.578125 
Q 30.03125 56 36.53125 56 
Q 37.453125 56 38.578125 55.875 
Q 39.703125 55.765625 41.0625 55.515625 
z
" id="DejaVuSans-114"/>
      <path d="M 34.28125 27.484375 
Q 23.390625 27.484375 19.1875 25 
Q 14.984375 22.515625 14.984375 16.5 
Q 14.984375 11.71875 18.140625 8.90625 
Q 21.296875 6.109375 26.703125 6.109375 
Q 34.1875 6.109375 38.703125 11.40625 
Q 43.21875 16.703125 43.21875 25.484375 
L 43.21875 27.484375 
z
M 52.203125 31.203125 
L 52.203125 0 
L 43.21875 0 
L 43.21875 8.296875 
Q 40.140625 3.328125 35.546875 0.953125 
Q 30.953125 -1.421875 24.3125 -1.421875 
Q 15.921875 -1.421875 10.953125 3.296875 
Q 6 8.015625 6 15.921875 
Q 6 25.140625 12.171875 29.828125 
Q 18.359375 34.515625 30.609375 34.515625 
L 43.21875 34.515625 
L 43.21875 35.40625 
Q 43.21875 41.609375 39.140625 45 
Q 35.0625 48.390625 27.6875 48.390625 
Q 23 48.390625 18.546875 47.265625 
Q 14.109375 46.140625 10.015625 43.890625 
L 10.015625 52.203125 
Q 14.9375 54.109375 19.578125 55.046875 
Q 24.21875 56 28.609375 56 
Q 40.484375 56 46.34375 49.84375 
Q 52.203125 43.703125 52.203125 31.203125 
z
" id="DejaVuSans-97"/>
      <path d="M 52 44.1875 
Q 55.375 50.25 60.0625 53.125 
Q 64.75 56 71.09375 56 
Q 79.640625 56 84.28125 50.015625 
Q 88.921875 44.046875 88.921875 33.015625 
L 88.921875 0 
L 79.890625 0 
L 79.890625 32.71875 
Q 79.890625 40.578125 77.09375 44.375 
Q 74.3125 48.1875 68.609375 48.1875 
Q 61.625 48.1875 57.5625 43.546875 
Q 53.515625 38.921875 53.515625 30.90625 
L 53.515625 0 
L 44.484375 0 
L 44.484375 32.71875 
Q 44.484375 40.625 41.703125 44.40625 
Q 38.921875 48.1875 33.109375 48.1875 
Q 26.21875 48.1875 22.15625 43.53125 
Q 18.109375 38.875 18.109375 30.90625 
L 18.109375 0 
L 9.078125 0 
L 9.078125 54.6875 
L 18.109375 54.6875 
L 18.109375 46.1875 
Q 21.1875 51.21875 25.484375 53.609375 
Q 29.78125 56 35.6875 56 
Q 41.65625 56 45.828125 52.96875 
Q 50 49.953125 52 44.1875 
z
" id="DejaVuSans-109"/>
      <path d="M 56.203125 29.59375 
L 56.203125 25.203125 
L 14.890625 25.203125 
Q 15.484375 15.921875 20.484375 11.0625 
Q 25.484375 6.203125 34.421875 6.203125 
Q 39.59375 6.203125 44.453125 7.46875 
Q 49.3125 8.734375 54.109375 11.28125 
L 54.109375 2.78125 
Q 49.265625 0.734375 44.1875 -0.34375 
Q 39.109375 -1.421875 33.890625 -1.421875 
Q 20.796875 -1.421875 13.15625 6.1875 
Q 5.515625 13.8125 5.515625 26.8125 
Q 5.515625 40.234375 12.765625 48.109375 
Q 20.015625 56 32.328125 56 
Q 43.359375 56 49.78125 48.890625 
Q 56.203125 41.796875 56.203125 29.59375 
z
M 47.21875 32.234375 
Q 47.125 39.59375 43.09375 43.984375 
Q 39.0625 48.390625 32.421875 48.390625 
Q 24.90625 48.390625 20.390625 44.140625 
Q 15.875 39.890625 15.1875 32.171875 
z
" id="DejaVuSans-101"/>
      <path id="DejaVuSans-32"/>
      <path d="M 9.8125 72.90625 
L 23.09375 72.90625 
L 55.421875 11.921875 
L 55.421875 72.90625 
L 64.984375 72.90625 
L 64.984375 0 
L 51.703125 0 
L 19.390625 60.984375 
L 19.390625 0 
L 9.8125 0 
z
" id="DejaVuSans-78"/>
      <path d="M 8.5 21.578125 
L 8.5 54.6875 
L 17.484375 54.6875 
L 17.484375 21.921875 
Q 17.484375 14.15625 20.5 10.265625 
Q 23.53125 6.390625 29.59375 6.390625 
Q 36.859375 6.390625 41.078125 11.03125 
Q 45.3125 15.671875 45.3125 23.6875 
L 45.3125 54.6875 
L 54.296875 54.6875 
L 54.296875 0 
L 45.3125 0 
L 45.3125 8.40625 
Q 42.046875 3.421875 37.71875 1 
Q 33.40625 -1.421875 27.6875 -1.421875 
Q 18.265625 -1.421875 13.375 4.4375 
Q 8.5 10.296875 8.5 21.578125 
z
M 31.109375 56 
z
" id="DejaVuSans-117"/>
      <path d="M 48.6875 27.296875 
Q 48.6875 37.203125 44.609375 42.84375 
Q 40.53125 48.484375 33.40625 48.484375 
Q 26.265625 48.484375 22.1875 42.84375 
Q 18.109375 37.203125 18.109375 27.296875 
Q 18.109375 17.390625 22.1875 11.75 
Q 26.265625 6.109375 33.40625 6.109375 
Q 40.53125 6.109375 44.609375 11.75 
Q 48.6875 17.390625 48.6875 27.296875 
z
M 18.109375 46.390625 
Q 20.953125 51.265625 25.265625 53.625 
Q 29.59375 56 35.59375 56 
Q 45.5625 56 51.78125 48.09375 
Q 58.015625 40.1875 58.015625 27.296875 
Q 58.015625 14.40625 51.78125 6.484375 
Q 45.5625 -1.421875 35.59375 -1.421875 
Q 29.59375 -1.421875 25.265625 0.953125 
Q 20.953125 3.328125 18.109375 8.203125 
L 18.109375 0 
L 9.078125 0 
L 9.078125 75.984375 
L 18.109375 75.984375 
z
" id="DejaVuSans-98"/>
     </defs>
     <g transform="translate(889.080312 706.316563)scale(0.1 -0.1)">
      <use xlink:href="#DejaVuSans-70"/>
      <use x="50.269531" xlink:href="#DejaVuSans-114"/>
      <use x="91.382812" xlink:href="#DejaVuSans-97"/>
      <use x="152.662109" xlink:href="#DejaVuSans-109"/>
      <use x="250.074219" xlink:href="#DejaVuSans-101"/>
      <use x="311.597656" xlink:href="#DejaVuSans-32"/>
      <use x="343.384766" xlink:href="#DejaVuSans-78"/>
      <use x="418.189453" xlink:href="#DejaVuSans-117"/>
      <use x="481.568359" xlink:href="#DejaVuSans-109"/>
      <use x="578.980469" xlink:href="#DejaVuSans-98"/>
      <use x="642.457031" xlink:href="#DejaVuSans-101"/>
      <use x="703.980469" xlink:href="#DejaVuSans-114"/>
     </g>
    </g>
   </g>
   <g id="matplotlib.axis_2">
    <g id="ytick_1">
     <g id="line2d_9">
      <defs>
       <path d="M 0 0 
L -3.5 0 
" id="m7f4f2afb27" style="stroke:#000000;stroke-width:0.8;"/>
      </defs>
      <g>
       <use style="stroke:#000000;stroke-width:0.8;" x="63.47" xlink:href="#m7f4f2afb27" y="605.900703"/>
      </g>
     </g>
     <g id="text_10">
      <!-- 3000 -->
      <g transform="translate(31.02 609.699921)scale(0.1 -0.1)">
       <use xlink:href="#DejaVuSans-51"/>
       <use x="63.623047" xlink:href="#DejaVuSans-48"/>
       <use x="127.246094" xlink:href="#DejaVuSans-48"/>
       <use x="190.869141" xlink:href="#DejaVuSans-48"/>
      </g>
     </g>
    </g>
    <g id="ytick_2">
     <g id="line2d_10">
      <g>
       <use style="stroke:#000000;stroke-width:0.8;" x="63.47" xlink:href="#m7f4f2afb27" y="525.634447"/>
      </g>
     </g>
     <g id="text_11">
      <!-- 4000 -->
      <g transform="translate(31.02 529.433666)scale(0.1 -0.1)">
       <use xlink:href="#DejaVuSans-52"/>
       <use x="63.623047" xlink:href="#DejaVuSans-48"/>
       <use x="127.246094" xlink:href="#DejaVuSans-48"/>
       <use x="190.869141" xlink:href="#DejaVuSans-48"/>
      </g>
     </g>
    </g>
    <g id="ytick_3">
     <g id="line2d_11">
      <g>
       <use style="stroke:#000000;stroke-width:0.8;" x="63.47" xlink:href="#m7f4f2afb27" y="445.368191"/>
      </g>
     </g>
     <g id="text_12">
      <!-- 5000 -->
      <g transform="translate(31.02 449.16741)scale(0.1 -0.1)">
       <use xlink:href="#DejaVuSans-53"/>
       <use x="63.623047" xlink:href="#DejaVuSans-48"/>
       <use x="127.246094" xlink:href="#DejaVuSans-48"/>
       <use x="190.869141" xlink:href="#DejaVuSans-48"/>
      </g>
     </g>
    </g>
    <g id="ytick_4">
     <g id="line2d_12">
      <g>
       <use style="stroke:#000000;stroke-width:0.8;" x="63.47" xlink:href="#m7f4f2afb27" y="365.101935"/>
      </g>
     </g>
     <g id="text_13">
      <!-- 6000 -->
      <g transform="translate(31.02 368.901154)scale(0.1 -0.1)">
       <use xlink:href="#DejaVuSans-54"/>
       <use x="63.623047" xlink:href="#DejaVuSans-48"/>
       <use x="127.246094" xlink:href="#DejaVuSans-48"/>
       <use x="190.869141" xlink:href="#DejaVuSans-48"/>
      </g>
     </g>
    </g>
    <g id="ytick_5">
     <g id="line2d_13">
      <g>
       <use style="stroke:#000000;stroke-width:0.8;" x="63.47" xlink:href="#m7f4f2afb27" y="284.83568"/>
      </g>
     </g>
     <g id="text_14">
      <!-- 7000 -->
      <g transform="translate(31.02 288.634898)scale(0.1 -0.1)">
       <use xlink:href="#DejaVuSans-55"/>
       <use x="63.623047" xlink:href="#DejaVuSans-48"/>
       <use x="127.246094" xlink:href="#DejaVuSans-48"/>
       <use x="190.869141" xlink:href="#DejaVuSans-48"/>
      </g>
     </g>
    </g>
    <g id="ytick_6">
     <g id="line2d_14">
      <g>
       <use style="stroke:#000000;stroke-width:0.8;" x="63.47" xlink:href="#m7f4f2afb27" y="204.569424"/>
      </g>
     </g>
     <g id="text_15">
      <!-- 8000 -->
      <defs>
       <path d="M 31.78125 34.625 
Q 24.75 34.625 20.71875 30.859375 
Q 16.703125 27.09375 16.703125 20.515625 
Q 16.703125 13.921875 20.71875 10.15625 
Q 24.75 6.390625 31.78125 6.390625 
Q 38.8125 6.390625 42.859375 10.171875 
Q 46.921875 13.96875 46.921875 20.515625 
Q 46.921875 27.09375 42.890625 30.859375 
Q 38.875 34.625 31.78125 34.625 
z
M 21.921875 38.8125 
Q 15.578125 40.375 12.03125 44.71875 
Q 8.5 49.078125 8.5 55.328125 
Q 8.5 64.0625 14.71875 69.140625 
Q 20.953125 74.21875 31.78125 74.21875 
Q 42.671875 74.21875 48.875 69.140625 
Q 55.078125 64.0625 55.078125 55.328125 
Q 55.078125 49.078125 51.53125 44.71875 
Q 48 40.375 41.703125 38.8125 
Q 48.828125 37.15625 52.796875 32.3125 
Q 56.78125 27.484375 56.78125 20.515625 
Q 56.78125 9.90625 50.3125 4.234375 
Q 43.84375 -1.421875 31.78125 -1.421875 
Q 19.734375 -1.421875 13.25 4.234375 
Q 6.78125 9.90625 6.78125 20.515625 
Q 6.78125 27.484375 10.78125 32.3125 
Q 14.796875 37.15625 21.921875 38.8125 
z
M 18.3125 54.390625 
Q 18.3125 48.734375 21.84375 45.5625 
Q 25.390625 42.390625 31.78125 42.390625 
Q 38.140625 42.390625 41.71875 45.5625 
Q 45.3125 48.734375 45.3125 54.390625 
Q 45.3125 60.0625 41.71875 63.234375 
Q 38.140625 66.40625 31.78125 66.40625 
Q 25.390625 66.40625 21.84375 63.234375 
Q 18.3125 60.0625 18.3125 54.390625 
z
" id="DejaVuSans-56"/>
      </defs>
      <g transform="translate(31.02 208.368642)scale(0.1 -0.1)">
       <use xlink:href="#DejaVuSans-56"/>
       <use x="63.623047" xlink:href="#DejaVuSans-48"/>
       <use x="127.246094" xlink:href="#DejaVuSans-48"/>
       <use x="190.869141" xlink:href="#DejaVuSans-48"/>
      </g>
     </g>
    </g>
    <g id="ytick_7">
     <g id="line2d_15">
      <g>
       <use style="stroke:#000000;stroke-width:0.8;" x="63.47" xlink:href="#m7f4f2afb27" y="124.303168"/>
      </g>
     </g>
     <g id="text_16">
      <!-- 9000 -->
      <defs>
       <path d="M 10.984375 1.515625 
L 10.984375 10.5 
Q 14.703125 8.734375 18.5 7.8125 
Q 22.3125 6.890625 25.984375 6.890625 
Q 35.75 6.890625 40.890625 13.453125 
Q 46.046875 20.015625 46.78125 33.40625 
Q 43.953125 29.203125 39.59375 26.953125 
Q 35.25 24.703125 29.984375 24.703125 
Q 19.046875 24.703125 12.671875 31.3125 
Q 6.296875 37.9375 6.296875 49.421875 
Q 6.296875 60.640625 12.9375 67.421875 
Q 19.578125 74.21875 30.609375 74.21875 
Q 43.265625 74.21875 49.921875 64.515625 
Q 56.59375 54.828125 56.59375 36.375 
Q 56.59375 19.140625 48.40625 8.859375 
Q 40.234375 -1.421875 26.421875 -1.421875 
Q 22.703125 -1.421875 18.890625 -0.6875 
Q 15.09375 0.046875 10.984375 1.515625 
z
M 30.609375 32.421875 
Q 37.25 32.421875 41.125 36.953125 
Q 45.015625 41.5 45.015625 49.421875 
Q 45.015625 57.28125 41.125 61.84375 
Q 37.25 66.40625 30.609375 66.40625 
Q 23.96875 66.40625 20.09375 61.84375 
Q 16.21875 57.28125 16.21875 49.421875 
Q 16.21875 41.5 20.09375 36.953125 
Q 23.96875 32.421875 30.609375 32.421875 
z
" id="DejaVuSans-57"/>
      </defs>
      <g transform="translate(31.02 128.102387)scale(0.1 -0.1)">
       <use xlink:href="#DejaVuSans-57"/>
       <use x="63.623047" xlink:href="#DejaVuSans-48"/>
       <use x="127.246094" xlink:href="#DejaVuSans-48"/>
       <use x="190.869141" xlink:href="#DejaVuSans-48"/>
      </g>
     </g>
    </g>
    <g id="ytick_8">
     <g id="line2d_16">
      <g>
       <use style="stroke:#000000;stroke-width:0.8;" x="63.47" xlink:href="#m7f4f2afb27" y="44.036912"/>
      </g>
     </g>
     <g id="text_17">
      <!-- 10000 -->
      <g transform="translate(24.6575 47.836131)scale(0.1 -0.1)">
       <use xlink:href="#DejaVuSans-49"/>
       <use x="63.623047" xlink:href="#DejaVuSans-48"/>
       <use x="127.246094" xlink:href="#DejaVuSans-48"/>
       <use x="190.869141" xlink:href="#DejaVuSans-48"/>
       <use x="254.492188" xlink:href="#DejaVuSans-48"/>
      </g>
     </g>
    </g>
    <g id="text_18">
     <!-- Detected Features -->
     <defs>
      <path d="M 19.671875 64.796875 
L 19.671875 8.109375 
L 31.59375 8.109375 
Q 46.6875 8.109375 53.6875 14.9375 
Q 60.6875 21.78125 60.6875 36.53125 
Q 60.6875 51.171875 53.6875 57.984375 
Q 46.6875 64.796875 31.59375 64.796875 
z
M 9.8125 72.90625 
L 30.078125 72.90625 
Q 51.265625 72.90625 61.171875 64.09375 
Q 71.09375 55.28125 71.09375 36.53125 
Q 71.09375 17.671875 61.125 8.828125 
Q 51.171875 0 30.078125 0 
L 9.8125 0 
z
" id="DejaVuSans-68"/>
      <path d="M 18.3125 70.21875 
L 18.3125 54.6875 
L 36.8125 54.6875 
L 36.8125 47.703125 
L 18.3125 47.703125 
L 18.3125 18.015625 
Q 18.3125 11.328125 20.140625 9.421875 
Q 21.96875 7.515625 27.59375 7.515625 
L 36.8125 7.515625 
L 36.8125 0 
L 27.59375 0 
Q 17.1875 0 13.234375 3.875 
Q 9.28125 7.765625 9.28125 18.015625 
L 9.28125 47.703125 
L 2.6875 47.703125 
L 2.6875 54.6875 
L 9.28125 54.6875 
L 9.28125 70.21875 
z
" id="DejaVuSans-116"/>
      <path d="M 48.78125 52.59375 
L 48.78125 44.1875 
Q 44.96875 46.296875 41.140625 47.34375 
Q 37.3125 48.390625 33.40625 48.390625 
Q 24.65625 48.390625 19.8125 42.84375 
Q 14.984375 37.3125 14.984375 27.296875 
Q 14.984375 17.28125 19.8125 11.734375 
Q 24.65625 6.203125 33.40625 6.203125 
Q 37.3125 6.203125 41.140625 7.25 
Q 44.96875 8.296875 48.78125 10.40625 
L 48.78125 2.09375 
Q 45.015625 0.34375 40.984375 -0.53125 
Q 36.96875 -1.421875 32.421875 -1.421875 
Q 20.0625 -1.421875 12.78125 6.34375 
Q 5.515625 14.109375 5.515625 27.296875 
Q 5.515625 40.671875 12.859375 48.328125 
Q 20.21875 56 33.015625 56 
Q 37.15625 56 41.109375 55.140625 
Q 45.0625 54.296875 48.78125 52.59375 
z
" id="DejaVuSans-99"/>
      <path d="M 45.40625 46.390625 
L 45.40625 75.984375 
L 54.390625 75.984375 
L 54.390625 0 
L 45.40625 0 
L 45.40625 8.203125 
Q 42.578125 3.328125 38.25 0.953125 
Q 33.9375 -1.421875 27.875 -1.421875 
Q 17.96875 -1.421875 11.734375 6.484375 
Q 5.515625 14.40625 5.515625 27.296875 
Q 5.515625 40.1875 11.734375 48.09375 
Q 17.96875 56 27.875 56 
Q 33.9375 56 38.25 53.625 
Q 42.578125 51.265625 45.40625 46.390625 
z
M 14.796875 27.296875 
Q 14.796875 17.390625 18.875 11.75 
Q 22.953125 6.109375 30.078125 6.109375 
Q 37.203125 6.109375 41.296875 11.75 
Q 45.40625 17.390625 45.40625 27.296875 
Q 45.40625 37.203125 41.296875 42.84375 
Q 37.203125 48.484375 30.078125 48.484375 
Q 22.953125 48.484375 18.875 42.84375 
Q 14.796875 37.203125 14.796875 27.296875 
z
" id="DejaVuSans-100"/>
      <path d="M 44.28125 53.078125 
L 44.28125 44.578125 
Q 40.484375 46.53125 36.375 47.5 
Q 32.28125 48.484375 27.875 48.484375 
Q 21.1875 48.484375 17.84375 46.4375 
Q 14.5 44.390625 14.5 40.28125 
Q 14.5 37.15625 16.890625 35.375 
Q 19.28125 33.59375 26.515625 31.984375 
L 29.59375 31.296875 
Q 39.15625 29.25 43.1875 25.515625 
Q 47.21875 21.78125 47.21875 15.09375 
Q 47.21875 7.46875 41.1875 3.015625 
Q 35.15625 -1.421875 24.609375 -1.421875 
Q 20.21875 -1.421875 15.453125 -0.5625 
Q 10.6875 0.296875 5.421875 2 
L 5.421875 11.28125 
Q 10.40625 8.6875 15.234375 7.390625 
Q 20.0625 6.109375 24.8125 6.109375 
Q 31.15625 6.109375 34.5625 8.28125 
Q 37.984375 10.453125 37.984375 14.40625 
Q 37.984375 18.0625 35.515625 20.015625 
Q 33.0625 21.96875 24.703125 23.78125 
L 21.578125 24.515625 
Q 13.234375 26.265625 9.515625 29.90625 
Q 5.8125 33.546875 5.8125 39.890625 
Q 5.8125 47.609375 11.28125 51.796875 
Q 16.75 56 26.8125 56 
Q 31.78125 56 36.171875 55.265625 
Q 40.578125 54.546875 44.28125 53.078125 
z
" id="DejaVuSans-115"/>
     </defs>
     <g transform="translate(18.577812 398.467031)rotate(-90)scale(0.1 -0.1)">
      <use xlink:href="#DejaVuSans-68"/>
      <use x="77.001953" xlink:href="#DejaVuSans-101"/>
      <use x="138.525391" xlink:href="#DejaVuSans-116"/>
      <use x="177.734375" xlink:href="#DejaVuSans-101"/>
      <use x="239.257812" xlink:href="#DejaVuSans-99"/>
      <use x="294.238281" xlink:href="#DejaVuSans-116"/>
      <use x="333.447266" xlink:href="#DejaVuSans-101"/>
      <use x="394.970703" xlink:href="#DejaVuSans-100"/>
      <use x="458.447266" xlink:href="#DejaVuSans-32"/>
      <use x="490.234375" xlink:href="#DejaVuSans-70"/>
      <use x="542.253906" xlink:href="#DejaVuSans-101"/>
      <use x="603.777344" xlink:href="#DejaVuSans-97"/>
      <use x="665.056641" xlink:href="#DejaVuSans-116"/>
      <use x="704.265625" xlink:href="#DejaVuSans-117"/>
      <use x="767.644531" xlink:href="#DejaVuSans-114"/>
      <use x="806.507812" xlink:href="#DejaVuSans-101"/>
      <use x="868.03125" xlink:href="#DejaVuSans-115"/>
     </g>
    </g>
   </g>
   <g id="line2d_17">
    <path clip-path="url(#pfc47328179)" d="M 141.912273 81.119922 
L 144.006859 89.628145 
L 146.101446 93.159861 
L 148.196033 91.634802 
L 150.29062 88.584684 
L 152.385206 87.701755 
L 154.479793 91.394003 
L 156.57438 87.139892 
L 158.668967 84.250306 
L 160.763553 84.410839 
L 162.85814 80.95939 
L 164.952727 79.996195 
L 167.047313 80.477792 
L 169.1419 79.755396 
L 171.236487 81.360721 
L 173.331074 83.126579 
L 175.42566 79.193532 
L 177.520247 77.829006 
L 179.614834 76.785545 
L 183.804007 75.421018 
L 185.898594 76.625012 
L 187.993181 78.551402 
L 190.087767 77.909272 
L 192.182354 76.223681 
L 194.276941 78.310603 
L 196.371527 80.236994 
L 198.466114 79.755396 
L 200.560701 81.360721 
L 202.655288 79.514597 
L 204.749874 82.083117 
L 206.844461 83.688443 
L 208.939048 81.842319 
L 211.033635 81.200189 
L 213.128221 82.163384 
L 215.222808 80.798857 
L 217.317395 80.558059 
L 219.411981 78.872467 
L 221.506568 80.638325 
L 223.601155 80.879124 
L 225.695742 81.762052 
L 227.790328 79.434331 
L 229.884915 78.792201 
L 231.979502 78.39087 
L 234.074088 78.631668 
L 236.168675 77.588207 
L 238.263262 78.551402 
L 240.357849 72.049835 
L 242.452435 71.72877 
L 244.547022 74.056492 
L 246.641609 72.3709 
L 248.736196 72.290634 
L 250.830782 69.882647 
L 252.925369 70.926108 
L 255.019956 70.44451 
L 257.114542 68.919451 
L 259.209129 68.758919 
L 261.303716 73.655161 
L 263.398303 70.765575 
L 265.492889 72.611699 
L 267.587476 71.166907 
L 269.682063 69.320783 
L 271.776649 68.277321 
L 273.871236 72.691965 
L 275.965823 74.698622 
L 280.154996 66.912795 
L 282.249583 70.123445 
L 284.34417 67.073328 
L 286.438757 70.44451 
L 288.533343 69.80238 
L 290.62793 70.685309 
L 292.722517 69.079984 
L 294.817103 68.598386 
L 296.91169 66.431198 
L 299.006277 66.511464 
L 301.100864 68.758919 
L 303.19545 66.752263 
L 305.290037 66.752263 
L 307.384624 67.635191 
L 309.47921 69.320783 
L 311.573797 69.882647 
L 313.668384 71.407705 
L 315.762971 67.23386 
L 317.857557 70.043179 
L 319.952144 66.190399 
L 322.046731 65.227204 
L 324.141318 64.825872 
L 326.235904 61.695488 
L 328.330491 65.468002 
L 330.425078 63.782411 
L 332.519664 61.294157 
L 334.614251 62.337618 
L 336.708838 61.615222 
L 338.803425 61.45469 
L 340.898011 63.38108 
L 342.992598 62.899482 
L 345.087185 61.213891 
L 347.181771 63.220547 
L 349.276358 61.294157 
L 351.370945 60.17043 
L 353.465532 56.799247 
L 355.560118 61.45469 
L 357.654705 60.330962 
L 359.749292 60.330962 
L 361.843879 60.81256 
L 363.938465 59.849365 
L 366.033052 61.374423 
L 368.127639 60.892826 
L 370.222225 56.799247 
L 372.316812 58.645371 
L 374.411399 57.280844 
L 376.505986 58.966436 
L 378.600572 57.441377 
L 380.695159 58.966436 
L 382.789746 59.126968 
L 384.884332 58.324306 
L 386.978919 60.090163 
L 389.073506 59.608566 
L 391.168093 61.053358 
L 393.262679 61.294157 
L 395.357266 62.09682 
L 397.451853 59.608566 
L 399.546439 60.491495 
L 403.735613 63.702145 
L 405.8302 61.695488 
L 407.924786 61.053358 
L 410.019373 62.09682 
L 412.11396 61.775755 
L 414.208547 62.899482 
L 416.303133 64.906139 
L 420.492307 65.387736 
L 422.586893 62.658684 
L 424.68148 65.387736 
L 426.776067 63.942944 
L 428.870654 66.350931 
L 430.96524 64.103476 
L 433.059827 62.899482 
L 435.154414 65.869334 
L 437.249 63.38108 
L 439.343587 63.942944 
L 441.438174 64.906139 
L 443.532761 65.066671 
L 445.627347 64.66534 
L 447.721934 62.979749 
L 451.911108 63.862677 
L 454.005694 62.578417 
L 456.100281 65.9496 
L 458.194868 63.621879 
L 460.289454 62.578417 
L 462.384041 62.016553 
L 464.478628 62.177086 
L 466.573215 65.387736 
L 468.667801 61.133625 
L 470.762388 61.695488 
L 472.856975 62.979749 
L 474.951561 63.300814 
L 477.046148 65.468002 
L 479.140735 63.621879 
L 481.235322 65.227204 
L 483.329908 64.745606 
L 485.424495 63.862677 
L 487.519082 64.986405 
L 489.613669 63.862677 
L 491.708255 65.146937 
L 493.802842 65.468002 
L 495.897429 62.177086 
L 497.992015 64.103476 
L 500.086602 65.468002 
L 502.181189 63.862677 
L 504.275776 65.066671 
L 506.370362 65.9496 
L 508.464949 64.344275 
L 510.559536 66.350931 
L 512.654122 66.190399 
L 514.748709 63.862677 
L 516.843296 65.227204 
L 518.937883 61.133625 
L 521.032469 63.541612 
L 523.127056 62.177086 
L 525.221643 65.146937 
L 527.31623 65.227204 
L 529.410816 62.73895 
L 531.505403 62.899482 
L 533.59999 62.899482 
L 535.694576 63.300814 
L 537.789163 63.541612 
L 539.88375 62.578417 
L 541.978337 61.45469 
L 544.072923 63.862677 
L 546.16751 62.578417 
L 548.262097 63.220547 
L 550.356683 64.264009 
L 552.45127 65.708801 
L 554.545857 63.782411 
L 556.640444 65.789067 
L 558.73503 65.387736 
L 560.829617 64.344275 
L 562.924204 67.23386 
L 565.018791 64.825872 
L 567.113377 67.23386 
L 569.207964 65.789067 
L 571.302551 62.09682 
L 573.397137 65.146937 
L 575.491724 65.387736 
L 577.586311 64.825872 
L 579.680898 66.350931 
L 581.775484 65.387736 
L 585.964658 67.554925 
L 588.059244 69.561582 
L 590.153831 69.561582 
L 592.248418 71.487972 
L 594.343005 69.882647 
L 596.437591 69.079984 
L 598.532178 68.437854 
L 600.626765 69.722114 
L 602.721351 69.240516 
L 604.815938 69.079984 
L 606.910525 69.079984 
L 609.005112 72.772232 
L 611.099698 71.327439 
L 613.194285 71.969569 
L 615.288872 70.605043 
L 617.383459 70.364244 
L 619.478045 74.538089 
L 621.572632 75.260486 
L 623.667219 74.457823 
L 625.761805 74.778888 
L 627.856392 71.969569 
L 629.950979 75.260486 
L 632.045566 76.063148 
L 634.140152 73.655161 
L 636.234739 73.655161 
L 638.329326 72.290634 
L 640.423912 72.3709 
L 642.518499 71.809037 
L 644.613086 73.976226 
L 646.707673 70.845842 
L 648.802259 74.377557 
L 652.991433 70.123445 
L 655.08602 72.772232 
L 657.180606 73.815693 
L 659.275193 73.574894 
L 661.36978 75.421018 
L 663.464366 70.685309 
L 665.558953 73.013031 
L 667.65354 72.451167 
L 669.748127 72.049835 
L 671.842713 69.561582 
L 673.9373 74.698622 
L 676.031887 74.056492 
L 678.126473 74.297291 
L 680.22106 70.765575 
L 682.315647 71.648504 
L 684.410234 72.772232 
L 686.50482 73.494628 
L 688.599407 74.377557 
L 690.693994 75.982882 
L 692.788581 77.74874 
L 694.883167 79.113266 
L 696.977754 73.414362 
L 699.072341 79.915929 
L 701.166927 79.996195 
L 703.261514 83.367378 
L 705.356101 84.009508 
L 707.450688 88.504418 
L 709.545274 88.183353 
L 711.639861 90.912406 
L 713.734448 93.882257 
L 715.829034 93.641458 
L 717.923621 92.838796 
L 720.018208 90.832139 
L 722.112795 96.370511 
L 724.207381 100.785155 
L 726.301968 101.828616 
L 728.396555 103.514208 
L 730.491142 104.156338 
L 732.585728 106.403793 
L 734.680315 105.60113 
L 736.774902 109.373644 
L 738.869488 107.447254 
L 740.964075 110.738171 
L 743.058662 112.664561 
L 745.153249 109.293378 
L 747.247835 112.102697 
L 749.342422 109.132846 
L 751.437009 110.015774 
L 753.531595 109.855242 
L 755.626182 107.607787 
L 757.720769 106.564325 
L 759.815356 98.377167 
L 761.909942 94.04279 
L 764.004529 93.561192 
L 766.099116 99.661427 
L 768.193703 94.765186 
L 770.288289 93.721724 
L 772.382876 93.962523 
L 774.477463 95.407316 
L 776.572049 93.721724 
L 778.666636 97.975836 
L 780.761223 99.099564 
L 782.85581 97.654771 
L 784.950396 99.500895 
L 787.044983 97.89557 
L 789.13957 98.617966 
L 791.234156 97.975836 
L 793.328743 97.89557 
L 795.42333 93.721724 
L 797.517917 98.296901 
L 799.612503 94.283588 
L 801.70709 96.129712 
L 803.801677 94.524387 
L 805.896264 92.357198 
L 807.99085 88.343885 
L 810.085437 92.678263 
L 812.180024 95.086251 
L 814.27461 91.153204 
L 816.369197 95.246783 
L 818.463784 100.383824 
L 820.558371 99.500895 
L 822.652957 99.741694 
L 824.747544 103.995805 
L 826.842131 107.768319 
L 828.936717 105.199799 
L 831.031304 105.119533 
L 833.125891 105.520864 
L 835.220478 104.557669 
L 837.315064 107.768319 
L 839.409651 105.761663 
L 841.504238 103.594474 
L 843.598824 99.982492 
L 845.693411 100.704889 
L 847.787998 105.119533 
L 849.882585 106.24326 
L 851.977171 106.965657 
L 854.071758 102.631279 
L 856.166345 102.872078 
L 858.260932 99.581161 
L 860.355518 99.661427 
L 862.450105 96.209978 
L 864.544692 95.32705 
L 866.639278 96.129712 
L 868.733865 94.604653 
L 870.828452 90.671607 
L 872.923039 94.203322 
L 875.017625 93.641458 
L 877.112212 95.166517 
L 879.206799 92.116399 
L 881.301385 87.541223 
L 883.395972 87.300424 
L 885.490559 85.935898 
L 887.585146 84.089774 
L 889.679732 81.521254 
L 891.774319 81.440987 
L 893.868906 83.929241 
L 895.963493 79.67513 
L 898.058079 83.929241 
L 900.152666 78.471136 
L 902.247253 81.922585 
L 904.341839 80.31726 
L 906.436426 81.360721 
L 908.531013 78.631668 
L 910.6256 80.638325 
L 912.720186 78.952733 
L 914.814773 78.631668 
L 916.90936 77.74874 
L 919.003946 79.434331 
L 921.098533 78.150071 
L 923.19312 78.872467 
L 925.287707 78.551402 
L 927.382293 79.67513 
L 929.47688 81.360721 
L 931.571467 81.842319 
L 933.666054 78.711935 
L 935.76064 79.193532 
L 937.855227 76.785545 
L 939.949814 77.427675 
L 942.0444 76.143414 
L 944.138987 77.588207 
L 946.233574 79.67513 
L 948.328161 76.063148 
L 950.422747 76.384213 
L 952.517334 78.310603 
L 954.611921 77.186876 
L 956.706507 76.544746 
L 958.801094 75.421018 
L 960.895681 76.865811 
L 962.990268 78.551402 
L 965.084854 73.655161 
L 967.179441 75.099953 
L 969.274028 74.056492 
L 971.368615 70.043179 
L 973.463201 66.752263 
L 975.557788 68.197055 
L 977.652375 66.993061 
L 979.746961 64.585074 
L 981.841548 65.628535 
L 983.936135 68.357588 
L 986.030722 68.036523 
L 988.125308 66.190399 
L 990.219895 67.87599 
L 992.314482 66.832529 
L 994.409068 65.146937 
L 996.503655 66.511464 
L 998.598242 67.474659 
L 1000.692829 64.906139 
L 1002.787415 64.825872 
L 1004.882002 63.541612 
L 1006.976589 61.936287 
L 1009.071176 64.66534 
L 1011.165762 61.936287 
L 1013.260349 58.966436 
L 1015.354936 58.324306 
L 1017.449522 59.287501 
L 1019.544109 59.126968 
L 1021.638696 58.805903 
L 1023.733283 61.133625 
L 1025.827869 58.484838 
L 1027.922456 57.762442 
L 1030.017043 58.324306 
L 1032.111629 56.478182 
L 1034.206216 56.799247 
L 1036.300803 61.374423 
L 1038.39539 57.441377 
L 1040.489976 58.484838 
L 1042.584563 58.805903 
L 1044.67915 60.491495 
L 1046.773736 58.244039 
L 1048.868323 58.083507 
L 1050.96291 60.571761 
L 1053.057497 57.040046 
L 1055.152083 58.404572 
L 1057.24667 63.541612 
L 1059.341257 61.615222 
L 1061.435844 62.177086 
L 1063.53043 59.046702 
L 1065.625017 61.294157 
L 1067.719604 60.330962 
L 1069.81419 64.344275 
L 1071.908777 68.919451 
L 1074.003364 69.722114 
L 1076.097951 78.471136 
L 1078.192537 74.377557 
L 1080.287124 81.60152 
L 1082.381711 85.775365 
L 1084.476297 88.504418 
L 1086.570884 99.581161 
L 1088.665471 123.500505 
L 1090.760058 150.309435 
L 1092.854644 163.392835 
L 1094.949231 197.505993 
L 1097.043818 207.137944 
L 1099.138405 230.415158 
L 1101.232991 259.230744 
L 1103.327578 278.17358 
L 1105.422165 294.547896 
L 1107.516751 312.928869 
L 1109.611338 347.20256 
L 1111.705925 360.125427 
L 1113.800512 380.513056 
L 1115.895098 399.054561 
L 1120.084272 453.234284 
L 1122.178858 452.913219 
L 1124.273445 490.959424 
L 1126.368032 518.410484 
L 1128.462619 539.761308 
L 1130.557205 555.252695 
L 1132.651792 575.158727 
L 1134.746379 605.820436 
L 1136.840966 632.067502 
L 1138.935552 641.137589 
L 1141.030139 646.114097 
L 1143.124726 635.75975 
L 1145.219312 648.441818 
L 1147.313899 631.264839 
L 1149.408486 632.468833 
L 1151.503073 623.880344 
L 1153.597659 616.816913 
L 1155.692246 597.553012 
L 1157.786833 602.850585 
L 1159.881419 599.078071 
L 1161.976006 613.285198 
L 1164.070593 621.39209 
L 1166.16518 616.25505 
L 1168.259766 607.586294 
L 1170.354353 611.679873 
L 1172.44894 597.633278 
L 1174.543527 589.767185 
L 1176.638113 570.824349 
L 1178.7327 556.617222 
L 1180.827287 539.761308 
L 1182.921873 538.557314 
L 1185.01646 524.751518 
L 1187.111047 518.651283 
L 1189.205634 506.04948 
L 1191.30022 504.524422 
L 1193.394807 485.822384 
L 1195.489394 468.645405 
L 1197.58398 443.441801 
L 1199.678567 424.739763 
L 1201.773154 403.067874 
L 1203.867741 351.296139 
L 1205.962327 335.242888 
L 1208.056914 313.009135 
L 1210.151501 295.10976 
L 1212.246088 281.946094 
L 1214.340674 252.88971 
L 1216.435261 238.200985 
L 1218.529848 200.235046 
L 1222.719021 144.209199 
L 1224.813608 143.005206 
L 1226.908195 135.139112 
L 1229.002781 127.995416 
L 1231.097368 125.346629 
L 1233.191955 125.507162 
L 1235.286541 128.55728 
L 1237.381128 123.982103 
L 1239.475715 123.018908 
L 1241.570302 126.309824 
L 1243.664888 119.888524 
L 1245.759475 124.865032 
L 1247.854062 126.630889 
L 1249.948649 131.76793 
L 1252.043235 138.83136 
L 1254.137822 145.493459 
L 1256.232409 164.516562 
L 1258.326995 164.99816 
L 1260.421582 175.27224 
L 1262.516169 202.321969 
L 1264.610756 210.107795 
L 1266.705342 220.462142 
L 1268.799929 229.050632 
L 1270.894516 224.79652 
L 1272.989102 199.51265 
L 1275.083689 206.897145 
L 1277.178276 210.589393 
L 1279.272863 232.020483 
L 1281.367449 242.37483 
L 1283.462036 229.130898 
L 1285.556623 206.495814 
L 1287.651209 207.21821 
L 1289.745796 189.559634 
L 1291.840383 199.994247 
L 1293.93497 199.673182 
L 1296.029556 202.402235 
L 1298.124143 184.262061 
L 1300.21873 202.643034 
L 1302.313317 195.499337 
L 1304.407903 207.057678 
L 1306.50249 203.124631 
L 1308.597077 209.545932 
L 1310.691663 206.335281 
L 1312.78625 197.505993 
L 1314.880837 189.238569 
L 1316.975424 192.529485 
L 1319.07001 185.466055 
L 1321.164597 179.526352 
L 1323.259184 168.770674 
L 1325.35377 173.105051 
L 1327.448357 168.369342 
L 1329.542944 175.834104 
L 1331.637531 176.877565 
L 1333.732117 187.312179 
L 1335.826704 186.670049 
L 1337.921291 197.505993 
L 1340.015878 177.038098 
L 1342.110464 175.994637 
L 1344.205051 175.91437 
L 1346.299638 171.740525 
L 1348.394224 155.285943 
L 1350.488811 160.663782 
L 1352.583398 163.152036 
L 1354.677985 167.325881 
L 1356.772571 170.697064 
L 1358.867158 176.957832 
L 1360.961745 175.994637 
L 1363.056331 182.335671 
L 1365.150918 173.185318 
L 1367.245505 175.27224 
L 1369.340092 169.894401 
L 1371.434678 175.111708 
L 1373.529265 164.35603 
L 1375.623852 166.844284 
L 1377.718439 167.968011 
L 1379.813025 169.573336 
L 1381.907612 169.894401 
L 1384.002199 175.111708 
L 1386.096785 176.476234 
L 1388.191372 178.803956 
L 1390.285959 168.20881 
L 1392.380546 173.666915 
L 1394.475132 175.753838 
L 1396.569719 171.981324 
L 1398.664306 160.663782 
L 1400.758892 169.894401 
L 1402.853479 169.733869 
L 1404.948066 174.63011 
L 1407.042653 182.897535 
L 1409.137239 186.589782 
L 1411.231826 199.111318 
L 1413.326413 204.408891 
L 1415.421 200.395578 
L 1417.515586 206.495814 
L 1419.610173 204.408891 
L 1421.70476 207.378743 
L 1423.799346 202.643034 
L 1425.893933 201.519306 
L 1427.98852 206.014216 
L 1430.083107 212.676316 
L 1434.27228 207.940606 
L 1436.366867 206.977411 
L 1438.461453 213.077647 
L 1440.55604 200.15478 
L 1442.650627 208.101139 
L 1444.745214 213.398712 
L 1446.8398 216.609362 
L 1448.934387 197.907324 
L 1451.028974 212.274984 
L 1453.123561 215.405368 
L 1455.218147 216.208031 
L 1457.312734 229.130898 
L 1459.407321 226.161047 
L 1461.501907 222.629331 
L 1463.596494 228.729567 
L 1465.691081 234.428471 
L 1467.785668 229.692762 
L 1469.880254 224.15439 
L 1471.974841 222.308266 
L 1474.069428 220.94374 
L 1476.164014 214.763238 
L 1478.258601 204.569424 
L 1480.353188 200.877176 
L 1482.447775 210.107795 
L 1484.542361 211.71312 
L 1486.636948 204.087826 
L 1488.731535 208.181405 
L 1490.826121 199.753448 
L 1492.920708 196.462532 
L 1495.015295 188.837238 
L 1497.109882 184.101529 
L 1499.204468 198.388922 
L 1501.299055 197.827058 
L 1503.393642 219.338415 
L 1505.488229 255.45823 
L 1507.582815 227.36504 
L 1509.677402 215.325102 
L 1511.771989 215.164569 
L 1513.866575 212.676316 
L 1515.961162 220.863474 
L 1518.055749 206.656346 
L 1520.150336 182.977801 
L 1522.244922 176.155169 
L 1524.339509 158.576859 
L 1526.434096 154.643813 
L 1528.528682 156.249138 
L 1530.623269 156.730735 
L 1532.717856 153.359553 
L 1534.812443 147.179051 
L 1536.907029 150.871299 
L 1539.001616 146.055323 
L 1541.096203 144.449998 
L 1543.19079 140.356419 
L 1545.285376 144.530264 
L 1547.379963 135.540444 
L 1549.47455 129.19941 
L 1551.569136 135.781243 
L 1553.663723 131.286332 
L 1555.75831 130.804735 
L 1557.852897 139.634023 
L 1559.947483 134.015385 
L 1562.04207 124.624233 
L 1564.136657 124.543967 
L 1566.231243 233.063945 
L 1568.32583 132.329794 
L 1570.420417 259.95314 
L 1572.515004 129.440208 
L 1574.60959 115.313347 
L 1576.704177 115.714679 
L 1578.798764 112.343496 
L 1580.893351 109.935508 
L 1582.987937 113.386957 
L 1585.082524 110.096041 
L 1587.177111 107.045923 
L 1589.271697 102.149681 
L 1591.366284 99.581161 
L 1593.460871 98.377167 
L 1595.555458 97.413972 
L 1597.650044 95.407316 
L 1599.744631 94.123056 
L 1601.839218 92.116399 
L 1603.933804 90.671607 
L 1606.028391 91.474269 
L 1608.122978 97.413972 
L 1610.217565 95.487582 
L 1612.312151 91.233471 
L 1614.406738 95.005985 
L 1616.501325 93.641458 
L 1618.595912 90.270276 
L 1620.690498 95.96918 
L 1622.785085 92.036133 
L 1624.879672 91.153204 
L 1626.974258 94.604653 
L 1629.068845 98.5377 
L 1631.163432 100.303557 
L 1633.258019 104.236604 
L 1635.352605 100.624622 
L 1637.447192 102.229948 
L 1639.541779 103.514208 
L 1641.636365 105.761663 
L 1643.730952 104.31687 
L 1645.825539 105.440598 
L 1650.014712 108.089384 
L 1652.109299 108.651248 
L 1654.203886 107.848586 
L 1656.298473 112.423762 
L 1658.393059 111.942165 
L 1660.487646 113.868555 
L 1662.582233 109.052579 
L 1664.676819 110.256573 
L 1666.771406 112.343496 
L 1668.865993 107.768319 
L 1670.96058 120.049056 
L 1673.055166 112.584295 
L 1677.24434 110.336839 
L 1679.338926 117.079205 
L 1681.433513 117.159471 
L 1683.5281 119.567459 
L 1685.622687 116.517341 
L 1687.717273 118.363465 
L 1689.81186 117.320004 
L 1691.906447 118.363465 
L 1694.001033 112.182963 
L 1696.09562 112.90536 
L 1698.190207 116.196276 
L 1700.284794 109.453911 
L 1702.37938 115.47388 
L 1704.473967 115.875211 
L 1706.568554 113.868555 
L 1708.663141 114.671217 
L 1710.757727 118.845063 
L 1710.757727 118.845063 
" style="fill:none;stroke:#1f77b4;stroke-linecap:square;stroke-width:1.5;"/>
   </g>
   <g id="patch_3">
    <path d="M 63.47 678.04 
L 63.47 26.88 
" style="fill:none;stroke:#000000;stroke-linecap:square;stroke-linejoin:miter;stroke-width:0.8;"/>
   </g>
   <g id="patch_4">
    <path d="M 1789.2 678.04 
L 1789.2 26.88 
" style="fill:none;stroke:#000000;stroke-linecap:square;stroke-linejoin:miter;stroke-width:0.8;"/>
   </g>
   <g id="patch_5">
    <path d="M 63.47 678.04 
L 1789.2 678.04 
" style="fill:none;stroke:#000000;stroke-linecap:square;stroke-linejoin:miter;stroke-width:0.8;"/>
   </g>
   <g id="patch_6">
    <path d="M 63.47 26.88 
L 1789.2 26.88 
" style="fill:none;stroke:#000000;stroke-linecap:square;stroke-linejoin:miter;stroke-width:0.8;"/>
   </g>
   <g id="text_19">
    <!-- Plot of Detected Features in Each Frame -->
    <defs>
     <path d="M 19.671875 64.796875 
L 19.671875 37.40625 
L 32.078125 37.40625 
Q 38.96875 37.40625 42.71875 40.96875 
Q 46.484375 44.53125 46.484375 51.125 
Q 46.484375 57.671875 42.71875 61.234375 
Q 38.96875 64.796875 32.078125 64.796875 
z
M 9.8125 72.90625 
L 32.078125 72.90625 
Q 44.34375 72.90625 50.609375 67.359375 
Q 56.890625 61.8125 56.890625 51.125 
Q 56.890625 40.328125 50.609375 34.8125 
Q 44.34375 29.296875 32.078125 29.296875 
L 19.671875 29.296875 
L 19.671875 0 
L 9.8125 0 
z
" id="DejaVuSans-80"/>
     <path d="M 9.421875 75.984375 
L 18.40625 75.984375 
L 18.40625 0 
L 9.421875 0 
z
" id="DejaVuSans-108"/>
     <path d="M 30.609375 48.390625 
Q 23.390625 48.390625 19.1875 42.75 
Q 14.984375 37.109375 14.984375 27.296875 
Q 14.984375 17.484375 19.15625 11.84375 
Q 23.34375 6.203125 30.609375 6.203125 
Q 37.796875 6.203125 41.984375 11.859375 
Q 46.1875 17.53125 46.1875 27.296875 
Q 46.1875 37.015625 41.984375 42.703125 
Q 37.796875 48.390625 30.609375 48.390625 
z
M 30.609375 56 
Q 42.328125 56 49.015625 48.375 
Q 55.71875 40.765625 55.71875 27.296875 
Q 55.71875 13.875 49.015625 6.21875 
Q 42.328125 -1.421875 30.609375 -1.421875 
Q 18.84375 -1.421875 12.171875 6.21875 
Q 5.515625 13.875 5.515625 27.296875 
Q 5.515625 40.765625 12.171875 48.375 
Q 18.84375 56 30.609375 56 
z
" id="DejaVuSans-111"/>
     <path d="M 37.109375 75.984375 
L 37.109375 68.5 
L 28.515625 68.5 
Q 23.6875 68.5 21.796875 66.546875 
Q 19.921875 64.59375 19.921875 59.515625 
L 19.921875 54.6875 
L 34.71875 54.6875 
L 34.71875 47.703125 
L 19.921875 47.703125 
L 19.921875 0 
L 10.890625 0 
L 10.890625 47.703125 
L 2.296875 47.703125 
L 2.296875 54.6875 
L 10.890625 54.6875 
L 10.890625 58.5 
Q 10.890625 67.625 15.140625 71.796875 
Q 19.390625 75.984375 28.609375 75.984375 
z
" id="DejaVuSans-102"/>
     <path d="M 9.421875 54.6875 
L 18.40625 54.6875 
L 18.40625 0 
L 9.421875 0 
z
M 9.421875 75.984375 
L 18.40625 75.984375 
L 18.40625 64.59375 
L 9.421875 64.59375 
z
" id="DejaVuSans-105"/>
     <path d="M 54.890625 33.015625 
L 54.890625 0 
L 45.90625 0 
L 45.90625 32.71875 
Q 45.90625 40.484375 42.875 44.328125 
Q 39.84375 48.1875 33.796875 48.1875 
Q 26.515625 48.1875 22.3125 43.546875 
Q 18.109375 38.921875 18.109375 30.90625 
L 18.109375 0 
L 9.078125 0 
L 9.078125 54.6875 
L 18.109375 54.6875 
L 18.109375 46.1875 
Q 21.34375 51.125 25.703125 53.5625 
Q 30.078125 56 35.796875 56 
Q 45.21875 56 50.046875 50.171875 
Q 54.890625 44.34375 54.890625 33.015625 
z
" id="DejaVuSans-110"/>
     <path d="M 9.8125 72.90625 
L 55.90625 72.90625 
L 55.90625 64.59375 
L 19.671875 64.59375 
L 19.671875 43.015625 
L 54.390625 43.015625 
L 54.390625 34.71875 
L 19.671875 34.71875 
L 19.671875 8.296875 
L 56.78125 8.296875 
L 56.78125 0 
L 9.8125 0 
z
" id="DejaVuSans-69"/>
     <path d="M 54.890625 33.015625 
L 54.890625 0 
L 45.90625 0 
L 45.90625 32.71875 
Q 45.90625 40.484375 42.875 44.328125 
Q 39.84375 48.1875 33.796875 48.1875 
Q 26.515625 48.1875 22.3125 43.546875 
Q 18.109375 38.921875 18.109375 30.90625 
L 18.109375 0 
L 9.078125 0 
L 9.078125 75.984375 
L 18.109375 75.984375 
L 18.109375 46.1875 
Q 21.34375 51.125 25.703125 53.5625 
Q 30.078125 56 35.796875 56 
Q 45.21875 56 50.046875 50.171875 
Q 54.890625 44.34375 54.890625 33.015625 
z
" id="DejaVuSans-104"/>
    </defs>
    <g transform="translate(805.765938 20.88)scale(0.12 -0.12)">
     <use xlink:href="#DejaVuSans-80"/>
     <use x="60.302734" xlink:href="#DejaVuSans-108"/>
     <use x="88.085938" xlink:href="#DejaVuSans-111"/>
     <use x="149.267578" xlink:href="#DejaVuSans-116"/>
     <use x="188.476562" xlink:href="#DejaVuSans-32"/>
     <use x="220.263672" xlink:href="#DejaVuSans-111"/>
     <use x="281.445312" xlink:href="#DejaVuSans-102"/>
     <use x="316.650391" xlink:href="#DejaVuSans-32"/>
     <use x="348.4375" xlink:href="#DejaVuSans-68"/>
     <use x="425.439453" xlink:href="#DejaVuSans-101"/>
     <use x="486.962891" xlink:href="#DejaVuSans-116"/>
     <use x="526.171875" xlink:href="#DejaVuSans-101"/>
     <use x="587.695312" xlink:href="#DejaVuSans-99"/>
     <use x="642.675781" xlink:href="#DejaVuSans-116"/>
     <use x="681.884766" xlink:href="#DejaVuSans-101"/>
     <use x="743.408203" xlink:href="#DejaVuSans-100"/>
     <use x="806.884766" xlink:href="#DejaVuSans-32"/>
     <use x="838.671875" xlink:href="#DejaVuSans-70"/>
     <use x="890.691406" xlink:href="#DejaVuSans-101"/>
     <use x="952.214844" xlink:href="#DejaVuSans-97"/>
     <use x="1013.494141" xlink:href="#DejaVuSans-116"/>
     <use x="1052.703125" xlink:href="#DejaVuSans-117"/>
     <use x="1116.082031" xlink:href="#DejaVuSans-114"/>
     <use x="1154.945312" xlink:href="#DejaVuSans-101"/>
     <use x="1216.46875" xlink:href="#DejaVuSans-115"/>
     <use x="1268.568359" xlink:href="#DejaVuSans-32"/>
     <use x="1300.355469" xlink:href="#DejaVuSans-105"/>
     <use x="1328.138672" xlink:href="#DejaVuSans-110"/>
     <use x="1391.517578" xlink:href="#DejaVuSans-32"/>
     <use x="1423.304688" xlink:href="#DejaVuSans-69"/>
     <use x="1486.488281" xlink:href="#DejaVuSans-97"/>
     <use x="1547.767578" xlink:href="#DejaVuSans-99"/>
     <use x="1602.748047" xlink:href="#DejaVuSans-104"/>
     <use x="1666.126953" xlink:href="#DejaVuSans-32"/>
     <use x="1697.914062" xlink:href="#DejaVuSans-70"/>
     <use x="1748.183594" xlink:href="#DejaVuSans-114"/>
     <use x="1789.296875" xlink:href="#DejaVuSans-97"/>
     <use x="1850.576172" xlink:href="#DejaVuSans-109"/>
     <use x="1947.988281" xlink:href="#DejaVuSans-101"/>
    </g>
   </g>
  </g>
 </g>
 <defs>
  <clipPath id="pfc47328179">
   <rect height="651.16" width="1725.73" x="63.47" y="26.88"/>
  </clipPath>
 </defs>
</svg>
