<?xml version="1.0" encoding="utf-8" standalone="no"?>
<!DOCTYPE svg PUBLIC "-//W3C//DTD SVG 1.1//EN"
  "http://www.w3.org/Graphics/SVG/1.1/DTD/svg11.dtd">
<!-- Created with matplotlib (https://matplotlib.org/) -->
<svg height="720pt" version="1.1" viewBox="0 0 1800 720" width="1800pt" xmlns="http://www.w3.org/2000/svg" xmlns:xlink="http://www.w3.org/1999/xlink">
 <defs>
  <style type="text/css">
*{stroke-linecap:butt;stroke-linejoin:round;}
  </style>
 </defs>
 <g id="figure_1">
  <g id="patch_1">
   <path d="M 0 720 
L 1800 720 
L 1800 0 
L 0 0 
z
" style="fill:#ffffff;"/>
  </g>
  <g id="axes_1">
   <g id="patch_2">
    <path d="M 50.87 678.04 
L 1789.2 678.04 
L 1789.2 26.88 
L 50.87 26.88 
z
" style="fill:#ffffff;"/>
   </g>
   <g id="matplotlib.axis_1">
    <g id="xtick_1">
     <g id="line2d_1">
      <defs>
       <path d="M 0 0 
L 0 3.5 
" id="m85fe76ce56" style="stroke:#000000;stroke-width:0.8;"/>
      </defs>
      <g>
       <use style="stroke:#000000;stroke-width:0.8;" x="127.77512" xlink:href="#m85fe76ce56" y="678.04"/>
      </g>
     </g>
     <g id="text_1">
      <!-- 0 -->
      <defs>
       <path d="M 31.78125 66.40625 
Q 24.171875 66.40625 20.328125 58.90625 
Q 16.5 51.421875 16.5 36.375 
Q 16.5 21.390625 20.328125 13.890625 
Q 24.171875 6.390625 31.78125 6.390625 
Q 39.453125 6.390625 43.28125 13.890625 
Q 47.125 21.390625 47.125 36.375 
Q 47.125 51.421875 43.28125 58.90625 
Q 39.453125 66.40625 31.78125 66.40625 
z
M 31.78125 74.21875 
Q 44.046875 74.21875 50.515625 64.515625 
Q 56.984375 54.828125 56.984375 36.375 
Q 56.984375 17.96875 50.515625 8.265625 
Q 44.046875 -1.421875 31.78125 -1.421875 
Q 19.53125 -1.421875 13.0625 8.265625 
Q 6.59375 17.96875 6.59375 36.375 
Q 6.59375 54.828125 13.0625 64.515625 
Q 19.53125 74.21875 31.78125 74.21875 
z
" id="DejaVuSans-48"/>
      </defs>
      <g transform="translate(124.59387 692.638438)scale(0.1 -0.1)">
       <use xlink:href="#DejaVuSans-48"/>
      </g>
     </g>
    </g>
    <g id="xtick_2">
     <g id="line2d_2">
      <g>
       <use style="stroke:#000000;stroke-width:0.8;" x="338.763104" xlink:href="#m85fe76ce56" y="678.04"/>
      </g>
     </g>
     <g id="text_2">
      <!-- 100 -->
      <defs>
       <path d="M 12.40625 8.296875 
L 28.515625 8.296875 
L 28.515625 63.921875 
L 10.984375 60.40625 
L 10.984375 69.390625 
L 28.421875 72.90625 
L 38.28125 72.90625 
L 38.28125 8.296875 
L 54.390625 8.296875 
L 54.390625 0 
L 12.40625 0 
z
" id="DejaVuSans-49"/>
      </defs>
      <g transform="translate(329.219354 692.638438)scale(0.1 -0.1)">
       <use xlink:href="#DejaVuSans-49"/>
       <use x="63.623047" xlink:href="#DejaVuSans-48"/>
       <use x="127.246094" xlink:href="#DejaVuSans-48"/>
      </g>
     </g>
    </g>
    <g id="xtick_3">
     <g id="line2d_3">
      <g>
       <use style="stroke:#000000;stroke-width:0.8;" x="549.751088" xlink:href="#m85fe76ce56" y="678.04"/>
      </g>
     </g>
     <g id="text_3">
      <!-- 200 -->
      <defs>
       <path d="M 19.1875 8.296875 
L 53.609375 8.296875 
L 53.609375 0 
L 7.328125 0 
L 7.328125 8.296875 
Q 12.9375 14.109375 22.625 23.890625 
Q 32.328125 33.6875 34.8125 36.53125 
Q 39.546875 41.84375 41.421875 45.53125 
Q 43.3125 49.21875 43.3125 52.78125 
Q 43.3125 58.59375 39.234375 62.25 
Q 35.15625 65.921875 28.609375 65.921875 
Q 23.96875 65.921875 18.8125 64.3125 
Q 13.671875 62.703125 7.8125 59.421875 
L 7.8125 69.390625 
Q 13.765625 71.78125 18.9375 73 
Q 24.125 74.21875 28.421875 74.21875 
Q 39.75 74.21875 46.484375 68.546875 
Q 53.21875 62.890625 53.21875 53.421875 
Q 53.21875 48.921875 51.53125 44.890625 
Q 49.859375 40.875 45.40625 35.40625 
Q 44.1875 33.984375 37.640625 27.21875 
Q 31.109375 20.453125 19.1875 8.296875 
z
" id="DejaVuSans-50"/>
      </defs>
      <g transform="translate(540.207338 692.638438)scale(0.1 -0.1)">
       <use xlink:href="#DejaVuSans-50"/>
       <use x="63.623047" xlink:href="#DejaVuSans-48"/>
       <use x="127.246094" xlink:href="#DejaVuSans-48"/>
      </g>
     </g>
    </g>
    <g id="xtick_4">
     <g id="line2d_4">
      <g>
       <use style="stroke:#000000;stroke-width:0.8;" x="760.739072" xlink:href="#m85fe76ce56" y="678.04"/>
      </g>
     </g>
     <g id="text_4">
      <!-- 300 -->
      <defs>
       <path d="M 40.578125 39.3125 
Q 47.65625 37.796875 51.625 33 
Q 55.609375 28.21875 55.609375 21.1875 
Q 55.609375 10.40625 48.1875 4.484375 
Q 40.765625 -1.421875 27.09375 -1.421875 
Q 22.515625 -1.421875 17.65625 -0.515625 
Q 12.796875 0.390625 7.625 2.203125 
L 7.625 11.71875 
Q 11.71875 9.328125 16.59375 8.109375 
Q 21.484375 6.890625 26.8125 6.890625 
Q 36.078125 6.890625 40.9375 10.546875 
Q 45.796875 14.203125 45.796875 21.1875 
Q 45.796875 27.640625 41.28125 31.265625 
Q 36.765625 34.90625 28.71875 34.90625 
L 20.21875 34.90625 
L 20.21875 43.015625 
L 29.109375 43.015625 
Q 36.375 43.015625 40.234375 45.921875 
Q 44.09375 48.828125 44.09375 54.296875 
Q 44.09375 59.90625 40.109375 62.90625 
Q 36.140625 65.921875 28.71875 65.921875 
Q 24.65625 65.921875 20.015625 65.03125 
Q 15.375 64.15625 9.8125 62.3125 
L 9.8125 71.09375 
Q 15.4375 72.65625 20.34375 73.4375 
Q 25.25 74.21875 29.59375 74.21875 
Q 40.828125 74.21875 47.359375 69.109375 
Q 53.90625 64.015625 53.90625 55.328125 
Q 53.90625 49.265625 50.4375 45.09375 
Q 46.96875 40.921875 40.578125 39.3125 
z
" id="DejaVuSans-51"/>
      </defs>
      <g transform="translate(751.195322 692.638438)scale(0.1 -0.1)">
       <use xlink:href="#DejaVuSans-51"/>
       <use x="63.623047" xlink:href="#DejaVuSans-48"/>
       <use x="127.246094" xlink:href="#DejaVuSans-48"/>
      </g>
     </g>
    </g>
    <g id="xtick_5">
     <g id="line2d_5">
      <g>
       <use style="stroke:#000000;stroke-width:0.8;" x="971.727056" xlink:href="#m85fe76ce56" y="678.04"/>
      </g>
     </g>
     <g id="text_5">
      <!-- 400 -->
      <defs>
       <path d="M 37.796875 64.3125 
L 12.890625 25.390625 
L 37.796875 25.390625 
z
M 35.203125 72.90625 
L 47.609375 72.90625 
L 47.609375 25.390625 
L 58.015625 25.390625 
L 58.015625 17.1875 
L 47.609375 17.1875 
L 47.609375 0 
L 37.796875 0 
L 37.796875 17.1875 
L 4.890625 17.1875 
L 4.890625 26.703125 
z
" id="DejaVuSans-52"/>
      </defs>
      <g transform="translate(962.183306 692.638438)scale(0.1 -0.1)">
       <use xlink:href="#DejaVuSans-52"/>
       <use x="63.623047" xlink:href="#DejaVuSans-48"/>
       <use x="127.246094" xlink:href="#DejaVuSans-48"/>
      </g>
     </g>
    </g>
    <g id="xtick_6">
     <g id="line2d_6">
      <g>
       <use style="stroke:#000000;stroke-width:0.8;" x="1182.71504" xlink:href="#m85fe76ce56" y="678.04"/>
      </g>
     </g>
     <g id="text_6">
      <!-- 500 -->
      <defs>
       <path d="M 10.796875 72.90625 
L 49.515625 72.90625 
L 49.515625 64.59375 
L 19.828125 64.59375 
L 19.828125 46.734375 
Q 21.96875 47.46875 24.109375 47.828125 
Q 26.265625 48.1875 28.421875 48.1875 
Q 40.625 48.1875 47.75 41.5 
Q 54.890625 34.8125 54.890625 23.390625 
Q 54.890625 11.625 47.5625 5.09375 
Q 40.234375 -1.421875 26.90625 -1.421875 
Q 22.3125 -1.421875 17.546875 -0.640625 
Q 12.796875 0.140625 7.71875 1.703125 
L 7.71875 11.625 
Q 12.109375 9.234375 16.796875 8.0625 
Q 21.484375 6.890625 26.703125 6.890625 
Q 35.15625 6.890625 40.078125 11.328125 
Q 45.015625 15.765625 45.015625 23.390625 
Q 45.015625 31 40.078125 35.4375 
Q 35.15625 39.890625 26.703125 39.890625 
Q 22.75 39.890625 18.8125 39.015625 
Q 14.890625 38.140625 10.796875 36.28125 
z
" id="DejaVuSans-53"/>
      </defs>
      <g transform="translate(1173.17129 692.638438)scale(0.1 -0.1)">
       <use xlink:href="#DejaVuSans-53"/>
       <use x="63.623047" xlink:href="#DejaVuSans-48"/>
       <use x="127.246094" xlink:href="#DejaVuSans-48"/>
      </g>
     </g>
    </g>
    <g id="xtick_7">
     <g id="line2d_7">
      <g>
       <use style="stroke:#000000;stroke-width:0.8;" x="1393.703024" xlink:href="#m85fe76ce56" y="678.04"/>
      </g>
     </g>
     <g id="text_7">
      <!-- 600 -->
      <defs>
       <path d="M 33.015625 40.375 
Q 26.375 40.375 22.484375 35.828125 
Q 18.609375 31.296875 18.609375 23.390625 
Q 18.609375 15.53125 22.484375 10.953125 
Q 26.375 6.390625 33.015625 6.390625 
Q 39.65625 6.390625 43.53125 10.953125 
Q 47.40625 15.53125 47.40625 23.390625 
Q 47.40625 31.296875 43.53125 35.828125 
Q 39.65625 40.375 33.015625 40.375 
z
M 52.59375 71.296875 
L 52.59375 62.3125 
Q 48.875 64.0625 45.09375 64.984375 
Q 41.3125 65.921875 37.59375 65.921875 
Q 27.828125 65.921875 22.671875 59.328125 
Q 17.53125 52.734375 16.796875 39.40625 
Q 19.671875 43.65625 24.015625 45.921875 
Q 28.375 48.1875 33.59375 48.1875 
Q 44.578125 48.1875 50.953125 41.515625 
Q 57.328125 34.859375 57.328125 23.390625 
Q 57.328125 12.15625 50.6875 5.359375 
Q 44.046875 -1.421875 33.015625 -1.421875 
Q 20.359375 -1.421875 13.671875 8.265625 
Q 6.984375 17.96875 6.984375 36.375 
Q 6.984375 53.65625 15.1875 63.9375 
Q 23.390625 74.21875 37.203125 74.21875 
Q 40.921875 74.21875 44.703125 73.484375 
Q 48.484375 72.75 52.59375 71.296875 
z
" id="DejaVuSans-54"/>
      </defs>
      <g transform="translate(1384.159274 692.638438)scale(0.1 -0.1)">
       <use xlink:href="#DejaVuSans-54"/>
       <use x="63.623047" xlink:href="#DejaVuSans-48"/>
       <use x="127.246094" xlink:href="#DejaVuSans-48"/>
      </g>
     </g>
    </g>
    <g id="xtick_8">
     <g id="line2d_8">
      <g>
       <use style="stroke:#000000;stroke-width:0.8;" x="1604.691008" xlink:href="#m85fe76ce56" y="678.04"/>
      </g>
     </g>
     <g id="text_8">
      <!-- 700 -->
      <defs>
       <path d="M 8.203125 72.90625 
L 55.078125 72.90625 
L 55.078125 68.703125 
L 28.609375 0 
L 18.3125 0 
L 43.21875 64.59375 
L 8.203125 64.59375 
z
" id="DejaVuSans-55"/>
      </defs>
      <g transform="translate(1595.147258 692.638438)scale(0.1 -0.1)">
       <use xlink:href="#DejaVuSans-55"/>
       <use x="63.623047" xlink:href="#DejaVuSans-48"/>
       <use x="127.246094" xlink:href="#DejaVuSans-48"/>
      </g>
     </g>
    </g>
    <g id="text_9">
     <!-- Frame Number -->
     <defs>
      <path d="M 9.8125 72.90625 
L 51.703125 72.90625 
L 51.703125 64.59375 
L 19.671875 64.59375 
L 19.671875 43.109375 
L 48.578125 43.109375 
L 48.578125 34.8125 
L 19.671875 34.8125 
L 19.671875 0 
L 9.8125 0 
z
" id="DejaVuSans-70"/>
      <path d="M 41.109375 46.296875 
Q 39.59375 47.171875 37.8125 47.578125 
Q 36.03125 48 33.890625 48 
Q 26.265625 48 22.1875 43.046875 
Q 18.109375 38.09375 18.109375 28.8125 
L 18.109375 0 
L 9.078125 0 
L 9.078125 54.6875 
L 18.109375 54.6875 
L 18.109375 46.1875 
Q 20.953125 51.171875 25.484375 53.578125 
Q 30.03125 56 36.53125 56 
Q 37.453125 56 38.578125 55.875 
Q 39.703125 55.765625 41.0625 55.515625 
z
" id="DejaVuSans-114"/>
      <path d="M 34.28125 27.484375 
Q 23.390625 27.484375 19.1875 25 
Q 14.984375 22.515625 14.984375 16.5 
Q 14.984375 11.71875 18.140625 8.90625 
Q 21.296875 6.109375 26.703125 6.109375 
Q 34.1875 6.109375 38.703125 11.40625 
Q 43.21875 16.703125 43.21875 25.484375 
L 43.21875 27.484375 
z
M 52.203125 31.203125 
L 52.203125 0 
L 43.21875 0 
L 43.21875 8.296875 
Q 40.140625 3.328125 35.546875 0.953125 
Q 30.953125 -1.421875 24.3125 -1.421875 
Q 15.921875 -1.421875 10.953125 3.296875 
Q 6 8.015625 6 15.921875 
Q 6 25.140625 12.171875 29.828125 
Q 18.359375 34.515625 30.609375 34.515625 
L 43.21875 34.515625 
L 43.21875 35.40625 
Q 43.21875 41.609375 39.140625 45 
Q 35.0625 48.390625 27.6875 48.390625 
Q 23 48.390625 18.546875 47.265625 
Q 14.109375 46.140625 10.015625 43.890625 
L 10.015625 52.203125 
Q 14.9375 54.109375 19.578125 55.046875 
Q 24.21875 56 28.609375 56 
Q 40.484375 56 46.34375 49.84375 
Q 52.203125 43.703125 52.203125 31.203125 
z
" id="DejaVuSans-97"/>
      <path d="M 52 44.1875 
Q 55.375 50.25 60.0625 53.125 
Q 64.75 56 71.09375 56 
Q 79.640625 56 84.28125 50.015625 
Q 88.921875 44.046875 88.921875 33.015625 
L 88.921875 0 
L 79.890625 0 
L 79.890625 32.71875 
Q 79.890625 40.578125 77.09375 44.375 
Q 74.3125 48.1875 68.609375 48.1875 
Q 61.625 48.1875 57.5625 43.546875 
Q 53.515625 38.921875 53.515625 30.90625 
L 53.515625 0 
L 44.484375 0 
L 44.484375 32.71875 
Q 44.484375 40.625 41.703125 44.40625 
Q 38.921875 48.1875 33.109375 48.1875 
Q 26.21875 48.1875 22.15625 43.53125 
Q 18.109375 38.875 18.109375 30.90625 
L 18.109375 0 
L 9.078125 0 
L 9.078125 54.6875 
L 18.109375 54.6875 
L 18.109375 46.1875 
Q 21.1875 51.21875 25.484375 53.609375 
Q 29.78125 56 35.6875 56 
Q 41.65625 56 45.828125 52.96875 
Q 50 49.953125 52 44.1875 
z
" id="DejaVuSans-109"/>
      <path d="M 56.203125 29.59375 
L 56.203125 25.203125 
L 14.890625 25.203125 
Q 15.484375 15.921875 20.484375 11.0625 
Q 25.484375 6.203125 34.421875 6.203125 
Q 39.59375 6.203125 44.453125 7.46875 
Q 49.3125 8.734375 54.109375 11.28125 
L 54.109375 2.78125 
Q 49.265625 0.734375 44.1875 -0.34375 
Q 39.109375 -1.421875 33.890625 -1.421875 
Q 20.796875 -1.421875 13.15625 6.1875 
Q 5.515625 13.8125 5.515625 26.8125 
Q 5.515625 40.234375 12.765625 48.109375 
Q 20.015625 56 32.328125 56 
Q 43.359375 56 49.78125 48.890625 
Q 56.203125 41.796875 56.203125 29.59375 
z
M 47.21875 32.234375 
Q 47.125 39.59375 43.09375 43.984375 
Q 39.0625 48.390625 32.421875 48.390625 
Q 24.90625 48.390625 20.390625 44.140625 
Q 15.875 39.890625 15.1875 32.171875 
z
" id="DejaVuSans-101"/>
      <path id="DejaVuSans-32"/>
      <path d="M 9.8125 72.90625 
L 23.09375 72.90625 
L 55.421875 11.921875 
L 55.421875 72.90625 
L 64.984375 72.90625 
L 64.984375 0 
L 51.703125 0 
L 19.390625 60.984375 
L 19.390625 0 
L 9.8125 0 
z
" id="DejaVuSans-78"/>
      <path d="M 8.5 21.578125 
L 8.5 54.6875 
L 17.484375 54.6875 
L 17.484375 21.921875 
Q 17.484375 14.15625 20.5 10.265625 
Q 23.53125 6.390625 29.59375 6.390625 
Q 36.859375 6.390625 41.078125 11.03125 
Q 45.3125 15.671875 45.3125 23.6875 
L 45.3125 54.6875 
L 54.296875 54.6875 
L 54.296875 0 
L 45.3125 0 
L 45.3125 8.40625 
Q 42.046875 3.421875 37.71875 1 
Q 33.40625 -1.421875 27.6875 -1.421875 
Q 18.265625 -1.421875 13.375 4.4375 
Q 8.5 10.296875 8.5 21.578125 
z
M 31.109375 56 
z
" id="DejaVuSans-117"/>
      <path d="M 48.6875 27.296875 
Q 48.6875 37.203125 44.609375 42.84375 
Q 40.53125 48.484375 33.40625 48.484375 
Q 26.265625 48.484375 22.1875 42.84375 
Q 18.109375 37.203125 18.109375 27.296875 
Q 18.109375 17.390625 22.1875 11.75 
Q 26.265625 6.109375 33.40625 6.109375 
Q 40.53125 6.109375 44.609375 11.75 
Q 48.6875 17.390625 48.6875 27.296875 
z
M 18.109375 46.390625 
Q 20.953125 51.265625 25.265625 53.625 
Q 29.59375 56 35.59375 56 
Q 45.5625 56 51.78125 48.09375 
Q 58.015625 40.1875 58.015625 27.296875 
Q 58.015625 14.40625 51.78125 6.484375 
Q 45.5625 -1.421875 35.59375 -1.421875 
Q 29.59375 -1.421875 25.265625 0.953125 
Q 20.953125 3.328125 18.109375 8.203125 
L 18.109375 0 
L 9.078125 0 
L 9.078125 75.984375 
L 18.109375 75.984375 
z
" id="DejaVuSans-98"/>
     </defs>
     <g transform="translate(882.780313 706.316563)scale(0.1 -0.1)">
      <use xlink:href="#DejaVuSans-70"/>
      <use x="50.269531" xlink:href="#DejaVuSans-114"/>
      <use x="91.382812" xlink:href="#DejaVuSans-97"/>
      <use x="152.662109" xlink:href="#DejaVuSans-109"/>
      <use x="250.074219" xlink:href="#DejaVuSans-101"/>
      <use x="311.597656" xlink:href="#DejaVuSans-32"/>
      <use x="343.384766" xlink:href="#DejaVuSans-78"/>
      <use x="418.189453" xlink:href="#DejaVuSans-117"/>
      <use x="481.568359" xlink:href="#DejaVuSans-109"/>
      <use x="578.980469" xlink:href="#DejaVuSans-98"/>
      <use x="642.457031" xlink:href="#DejaVuSans-101"/>
      <use x="703.980469" xlink:href="#DejaVuSans-114"/>
     </g>
    </g>
   </g>
   <g id="matplotlib.axis_2">
    <g id="ytick_1">
     <g id="line2d_9">
      <defs>
       <path d="M 0 0 
L -3.5 0 
" id="mafcd971794" style="stroke:#000000;stroke-width:0.8;"/>
      </defs>
      <g>
       <use style="stroke:#000000;stroke-width:0.8;" x="50.87" xlink:href="#mafcd971794" y="621.589171"/>
      </g>
     </g>
     <g id="text_10">
      <!-- 20 -->
      <g transform="translate(31.145 625.38839)scale(0.1 -0.1)">
       <use xlink:href="#DejaVuSans-50"/>
       <use x="63.623047" xlink:href="#DejaVuSans-48"/>
      </g>
     </g>
    </g>
    <g id="ytick_2">
     <g id="line2d_10">
      <g>
       <use style="stroke:#000000;stroke-width:0.8;" x="50.87" xlink:href="#mafcd971794" y="508.406253"/>
      </g>
     </g>
     <g id="text_11">
      <!-- 40 -->
      <g transform="translate(31.145 512.205472)scale(0.1 -0.1)">
       <use xlink:href="#DejaVuSans-52"/>
       <use x="63.623047" xlink:href="#DejaVuSans-48"/>
      </g>
     </g>
    </g>
    <g id="ytick_3">
     <g id="line2d_11">
      <g>
       <use style="stroke:#000000;stroke-width:0.8;" x="50.87" xlink:href="#mafcd971794" y="395.223336"/>
      </g>
     </g>
     <g id="text_12">
      <!-- 60 -->
      <g transform="translate(31.145 399.022555)scale(0.1 -0.1)">
       <use xlink:href="#DejaVuSans-54"/>
       <use x="63.623047" xlink:href="#DejaVuSans-48"/>
      </g>
     </g>
    </g>
    <g id="ytick_4">
     <g id="line2d_12">
      <g>
       <use style="stroke:#000000;stroke-width:0.8;" x="50.87" xlink:href="#mafcd971794" y="282.040418"/>
      </g>
     </g>
     <g id="text_13">
      <!-- 80 -->
      <defs>
       <path d="M 31.78125 34.625 
Q 24.75 34.625 20.71875 30.859375 
Q 16.703125 27.09375 16.703125 20.515625 
Q 16.703125 13.921875 20.71875 10.15625 
Q 24.75 6.390625 31.78125 6.390625 
Q 38.8125 6.390625 42.859375 10.171875 
Q 46.921875 13.96875 46.921875 20.515625 
Q 46.921875 27.09375 42.890625 30.859375 
Q 38.875 34.625 31.78125 34.625 
z
M 21.921875 38.8125 
Q 15.578125 40.375 12.03125 44.71875 
Q 8.5 49.078125 8.5 55.328125 
Q 8.5 64.0625 14.71875 69.140625 
Q 20.953125 74.21875 31.78125 74.21875 
Q 42.671875 74.21875 48.875 69.140625 
Q 55.078125 64.0625 55.078125 55.328125 
Q 55.078125 49.078125 51.53125 44.71875 
Q 48 40.375 41.703125 38.8125 
Q 48.828125 37.15625 52.796875 32.3125 
Q 56.78125 27.484375 56.78125 20.515625 
Q 56.78125 9.90625 50.3125 4.234375 
Q 43.84375 -1.421875 31.78125 -1.421875 
Q 19.734375 -1.421875 13.25 4.234375 
Q 6.78125 9.90625 6.78125 20.515625 
Q 6.78125 27.484375 10.78125 32.3125 
Q 14.796875 37.15625 21.921875 38.8125 
z
M 18.3125 54.390625 
Q 18.3125 48.734375 21.84375 45.5625 
Q 25.390625 42.390625 31.78125 42.390625 
Q 38.140625 42.390625 41.71875 45.5625 
Q 45.3125 48.734375 45.3125 54.390625 
Q 45.3125 60.0625 41.71875 63.234375 
Q 38.140625 66.40625 31.78125 66.40625 
Q 25.390625 66.40625 21.84375 63.234375 
Q 18.3125 60.0625 18.3125 54.390625 
z
" id="DejaVuSans-56"/>
      </defs>
      <g transform="translate(31.145 285.839637)scale(0.1 -0.1)">
       <use xlink:href="#DejaVuSans-56"/>
       <use x="63.623047" xlink:href="#DejaVuSans-48"/>
      </g>
     </g>
    </g>
    <g id="ytick_5">
     <g id="line2d_13">
      <g>
       <use style="stroke:#000000;stroke-width:0.8;" x="50.87" xlink:href="#mafcd971794" y="168.857501"/>
      </g>
     </g>
     <g id="text_14">
      <!-- 100 -->
      <g transform="translate(24.7825 172.656719)scale(0.1 -0.1)">
       <use xlink:href="#DejaVuSans-49"/>
       <use x="63.623047" xlink:href="#DejaVuSans-48"/>
       <use x="127.246094" xlink:href="#DejaVuSans-48"/>
      </g>
     </g>
    </g>
    <g id="ytick_6">
     <g id="line2d_14">
      <g>
       <use style="stroke:#000000;stroke-width:0.8;" x="50.87" xlink:href="#mafcd971794" y="55.674583"/>
      </g>
     </g>
     <g id="text_15">
      <!-- 120 -->
      <g transform="translate(24.7825 59.473802)scale(0.1 -0.1)">
       <use xlink:href="#DejaVuSans-49"/>
       <use x="63.623047" xlink:href="#DejaVuSans-50"/>
       <use x="127.246094" xlink:href="#DejaVuSans-48"/>
      </g>
     </g>
    </g>
    <g id="text_16">
     <!-- Time Taken for Identifying Features(ms) -->
     <defs>
      <path d="M -0.296875 72.90625 
L 61.375 72.90625 
L 61.375 64.59375 
L 35.5 64.59375 
L 35.5 0 
L 25.59375 0 
L 25.59375 64.59375 
L -0.296875 64.59375 
z
" id="DejaVuSans-84"/>
      <path d="M 9.421875 54.6875 
L 18.40625 54.6875 
L 18.40625 0 
L 9.421875 0 
z
M 9.421875 75.984375 
L 18.40625 75.984375 
L 18.40625 64.59375 
L 9.421875 64.59375 
z
" id="DejaVuSans-105"/>
      <path d="M 9.078125 75.984375 
L 18.109375 75.984375 
L 18.109375 31.109375 
L 44.921875 54.6875 
L 56.390625 54.6875 
L 27.390625 29.109375 
L 57.625 0 
L 45.90625 0 
L 18.109375 26.703125 
L 18.109375 0 
L 9.078125 0 
z
" id="DejaVuSans-107"/>
      <path d="M 54.890625 33.015625 
L 54.890625 0 
L 45.90625 0 
L 45.90625 32.71875 
Q 45.90625 40.484375 42.875 44.328125 
Q 39.84375 48.1875 33.796875 48.1875 
Q 26.515625 48.1875 22.3125 43.546875 
Q 18.109375 38.921875 18.109375 30.90625 
L 18.109375 0 
L 9.078125 0 
L 9.078125 54.6875 
L 18.109375 54.6875 
L 18.109375 46.1875 
Q 21.34375 51.125 25.703125 53.5625 
Q 30.078125 56 35.796875 56 
Q 45.21875 56 50.046875 50.171875 
Q 54.890625 44.34375 54.890625 33.015625 
z
" id="DejaVuSans-110"/>
      <path d="M 37.109375 75.984375 
L 37.109375 68.5 
L 28.515625 68.5 
Q 23.6875 68.5 21.796875 66.546875 
Q 19.921875 64.59375 19.921875 59.515625 
L 19.921875 54.6875 
L 34.71875 54.6875 
L 34.71875 47.703125 
L 19.921875 47.703125 
L 19.921875 0 
L 10.890625 0 
L 10.890625 47.703125 
L 2.296875 47.703125 
L 2.296875 54.6875 
L 10.890625 54.6875 
L 10.890625 58.5 
Q 10.890625 67.625 15.140625 71.796875 
Q 19.390625 75.984375 28.609375 75.984375 
z
" id="DejaVuSans-102"/>
      <path d="M 30.609375 48.390625 
Q 23.390625 48.390625 19.1875 42.75 
Q 14.984375 37.109375 14.984375 27.296875 
Q 14.984375 17.484375 19.15625 11.84375 
Q 23.34375 6.203125 30.609375 6.203125 
Q 37.796875 6.203125 41.984375 11.859375 
Q 46.1875 17.53125 46.1875 27.296875 
Q 46.1875 37.015625 41.984375 42.703125 
Q 37.796875 48.390625 30.609375 48.390625 
z
M 30.609375 56 
Q 42.328125 56 49.015625 48.375 
Q 55.71875 40.765625 55.71875 27.296875 
Q 55.71875 13.875 49.015625 6.21875 
Q 42.328125 -1.421875 30.609375 -1.421875 
Q 18.84375 -1.421875 12.171875 6.21875 
Q 5.515625 13.875 5.515625 27.296875 
Q 5.515625 40.765625 12.171875 48.375 
Q 18.84375 56 30.609375 56 
z
" id="DejaVuSans-111"/>
      <path d="M 9.8125 72.90625 
L 19.671875 72.90625 
L 19.671875 0 
L 9.8125 0 
z
" id="DejaVuSans-73"/>
      <path d="M 45.40625 46.390625 
L 45.40625 75.984375 
L 54.390625 75.984375 
L 54.390625 0 
L 45.40625 0 
L 45.40625 8.203125 
Q 42.578125 3.328125 38.25 0.953125 
Q 33.9375 -1.421875 27.875 -1.421875 
Q 17.96875 -1.421875 11.734375 6.484375 
Q 5.515625 14.40625 5.515625 27.296875 
Q 5.515625 40.1875 11.734375 48.09375 
Q 17.96875 56 27.875 56 
Q 33.9375 56 38.25 53.625 
Q 42.578125 51.265625 45.40625 46.390625 
z
M 14.796875 27.296875 
Q 14.796875 17.390625 18.875 11.75 
Q 22.953125 6.109375 30.078125 6.109375 
Q 37.203125 6.109375 41.296875 11.75 
Q 45.40625 17.390625 45.40625 27.296875 
Q 45.40625 37.203125 41.296875 42.84375 
Q 37.203125 48.484375 30.078125 48.484375 
Q 22.953125 48.484375 18.875 42.84375 
Q 14.796875 37.203125 14.796875 27.296875 
z
" id="DejaVuSans-100"/>
      <path d="M 18.3125 70.21875 
L 18.3125 54.6875 
L 36.8125 54.6875 
L 36.8125 47.703125 
L 18.3125 47.703125 
L 18.3125 18.015625 
Q 18.3125 11.328125 20.140625 9.421875 
Q 21.96875 7.515625 27.59375 7.515625 
L 36.8125 7.515625 
L 36.8125 0 
L 27.59375 0 
Q 17.1875 0 13.234375 3.875 
Q 9.28125 7.765625 9.28125 18.015625 
L 9.28125 47.703125 
L 2.6875 47.703125 
L 2.6875 54.6875 
L 9.28125 54.6875 
L 9.28125 70.21875 
z
" id="DejaVuSans-116"/>
      <path d="M 32.171875 -5.078125 
Q 28.375 -14.84375 24.75 -17.8125 
Q 21.140625 -20.796875 15.09375 -20.796875 
L 7.90625 -20.796875 
L 7.90625 -13.28125 
L 13.1875 -13.28125 
Q 16.890625 -13.28125 18.9375 -11.515625 
Q 21 -9.765625 23.484375 -3.21875 
L 25.09375 0.875 
L 2.984375 54.6875 
L 12.5 54.6875 
L 29.59375 11.921875 
L 46.6875 54.6875 
L 56.203125 54.6875 
z
" id="DejaVuSans-121"/>
      <path d="M 45.40625 27.984375 
Q 45.40625 37.75 41.375 43.109375 
Q 37.359375 48.484375 30.078125 48.484375 
Q 22.859375 48.484375 18.828125 43.109375 
Q 14.796875 37.75 14.796875 27.984375 
Q 14.796875 18.265625 18.828125 12.890625 
Q 22.859375 7.515625 30.078125 7.515625 
Q 37.359375 7.515625 41.375 12.890625 
Q 45.40625 18.265625 45.40625 27.984375 
z
M 54.390625 6.78125 
Q 54.390625 -7.171875 48.1875 -13.984375 
Q 42 -20.796875 29.203125 -20.796875 
Q 24.46875 -20.796875 20.265625 -20.09375 
Q 16.0625 -19.390625 12.109375 -17.921875 
L 12.109375 -9.1875 
Q 16.0625 -11.328125 19.921875 -12.34375 
Q 23.78125 -13.375 27.78125 -13.375 
Q 36.625 -13.375 41.015625 -8.765625 
Q 45.40625 -4.15625 45.40625 5.171875 
L 45.40625 9.625 
Q 42.625 4.78125 38.28125 2.390625 
Q 33.9375 0 27.875 0 
Q 17.828125 0 11.671875 7.65625 
Q 5.515625 15.328125 5.515625 27.984375 
Q 5.515625 40.671875 11.671875 48.328125 
Q 17.828125 56 27.875 56 
Q 33.9375 56 38.28125 53.609375 
Q 42.625 51.21875 45.40625 46.390625 
L 45.40625 54.6875 
L 54.390625 54.6875 
z
" id="DejaVuSans-103"/>
      <path d="M 44.28125 53.078125 
L 44.28125 44.578125 
Q 40.484375 46.53125 36.375 47.5 
Q 32.28125 48.484375 27.875 48.484375 
Q 21.1875 48.484375 17.84375 46.4375 
Q 14.5 44.390625 14.5 40.28125 
Q 14.5 37.15625 16.890625 35.375 
Q 19.28125 33.59375 26.515625 31.984375 
L 29.59375 31.296875 
Q 39.15625 29.25 43.1875 25.515625 
Q 47.21875 21.78125 47.21875 15.09375 
Q 47.21875 7.46875 41.1875 3.015625 
Q 35.15625 -1.421875 24.609375 -1.421875 
Q 20.21875 -1.421875 15.453125 -0.5625 
Q 10.6875 0.296875 5.421875 2 
L 5.421875 11.28125 
Q 10.40625 8.6875 15.234375 7.390625 
Q 20.0625 6.109375 24.8125 6.109375 
Q 31.15625 6.109375 34.5625 8.28125 
Q 37.984375 10.453125 37.984375 14.40625 
Q 37.984375 18.0625 35.515625 20.015625 
Q 33.0625 21.96875 24.703125 23.78125 
L 21.578125 24.515625 
Q 13.234375 26.265625 9.515625 29.90625 
Q 5.8125 33.546875 5.8125 39.890625 
Q 5.8125 47.609375 11.28125 51.796875 
Q 16.75 56 26.8125 56 
Q 31.78125 56 36.171875 55.265625 
Q 40.578125 54.546875 44.28125 53.078125 
z
" id="DejaVuSans-115"/>
      <path d="M 31 75.875 
Q 24.46875 64.65625 21.28125 53.65625 
Q 18.109375 42.671875 18.109375 31.390625 
Q 18.109375 20.125 21.3125 9.0625 
Q 24.515625 -2 31 -13.1875 
L 23.1875 -13.1875 
Q 15.875 -1.703125 12.234375 9.375 
Q 8.59375 20.453125 8.59375 31.390625 
Q 8.59375 42.28125 12.203125 53.3125 
Q 15.828125 64.359375 23.1875 75.875 
z
" id="DejaVuSans-40"/>
      <path d="M 8.015625 75.875 
L 15.828125 75.875 
Q 23.140625 64.359375 26.78125 53.3125 
Q 30.421875 42.28125 30.421875 31.390625 
Q 30.421875 20.453125 26.78125 9.375 
Q 23.140625 -1.703125 15.828125 -13.1875 
L 8.015625 -13.1875 
Q 14.5 -2 17.703125 9.0625 
Q 20.90625 20.125 20.90625 31.390625 
Q 20.90625 42.671875 17.703125 53.65625 
Q 14.5 64.65625 8.015625 75.875 
z
" id="DejaVuSans-41"/>
     </defs>
     <g transform="translate(18.702812 451.656094)rotate(-90)scale(0.1 -0.1)">
      <use xlink:href="#DejaVuSans-84"/>
      <use x="57.958984" xlink:href="#DejaVuSans-105"/>
      <use x="85.742188" xlink:href="#DejaVuSans-109"/>
      <use x="183.154297" xlink:href="#DejaVuSans-101"/>
      <use x="244.677734" xlink:href="#DejaVuSans-32"/>
      <use x="276.464844" xlink:href="#DejaVuSans-84"/>
      <use x="321.048828" xlink:href="#DejaVuSans-97"/>
      <use x="382.328125" xlink:href="#DejaVuSans-107"/>
      <use x="436.613281" xlink:href="#DejaVuSans-101"/>
      <use x="498.136719" xlink:href="#DejaVuSans-110"/>
      <use x="561.515625" xlink:href="#DejaVuSans-32"/>
      <use x="593.302734" xlink:href="#DejaVuSans-102"/>
      <use x="628.507812" xlink:href="#DejaVuSans-111"/>
      <use x="689.689453" xlink:href="#DejaVuSans-114"/>
      <use x="730.802734" xlink:href="#DejaVuSans-32"/>
      <use x="762.589844" xlink:href="#DejaVuSans-73"/>
      <use x="792.082031" xlink:href="#DejaVuSans-100"/>
      <use x="855.558594" xlink:href="#DejaVuSans-101"/>
      <use x="917.082031" xlink:href="#DejaVuSans-110"/>
      <use x="980.460938" xlink:href="#DejaVuSans-116"/>
      <use x="1019.669922" xlink:href="#DejaVuSans-105"/>
      <use x="1047.453125" xlink:href="#DejaVuSans-102"/>
      <use x="1080.908203" xlink:href="#DejaVuSans-121"/>
      <use x="1140.087891" xlink:href="#DejaVuSans-105"/>
      <use x="1167.871094" xlink:href="#DejaVuSans-110"/>
      <use x="1231.25" xlink:href="#DejaVuSans-103"/>
      <use x="1294.726562" xlink:href="#DejaVuSans-32"/>
      <use x="1326.513672" xlink:href="#DejaVuSans-70"/>
      <use x="1378.533203" xlink:href="#DejaVuSans-101"/>
      <use x="1440.056641" xlink:href="#DejaVuSans-97"/>
      <use x="1501.335938" xlink:href="#DejaVuSans-116"/>
      <use x="1540.544922" xlink:href="#DejaVuSans-117"/>
      <use x="1603.923828" xlink:href="#DejaVuSans-114"/>
      <use x="1642.787109" xlink:href="#DejaVuSans-101"/>
      <use x="1704.310547" xlink:href="#DejaVuSans-115"/>
      <use x="1756.410156" xlink:href="#DejaVuSans-40"/>
      <use x="1795.423828" xlink:href="#DejaVuSans-109"/>
      <use x="1892.835938" xlink:href="#DejaVuSans-115"/>
      <use x="1944.935547" xlink:href="#DejaVuSans-41"/>
     </g>
    </g>
   </g>
   <g id="line2d_15">
    <path clip-path="url(#pba16a64b30)" d="M 129.885 56.478182 
L 131.99488 502.656561 
L 134.10476 506.821693 
L 136.21464 482.470388 
L 138.324519 506.012435 
L 140.434399 502.317012 
L 142.544279 382.422348 
L 144.654159 363.962214 
L 146.764039 507.161241 
L 148.873919 509.815381 
L 150.983798 506.606645 
L 153.093678 506.408575 
L 155.203558 503.12627 
L 157.313438 310.613446 
L 159.423318 480.4048 
L 161.533198 502.622606 
L 163.643077 496.96912 
L 165.752957 501.73412 
L 167.862837 501.281389 
L 169.972717 303.437649 
L 172.082597 317.817539 
L 174.192477 497.478443 
L 176.302356 372.501865 
L 178.412236 374.05813 
L 180.522116 499.334643 
L 182.631996 498.151881 
L 184.741876 499.996763 
L 186.851756 501.417208 
L 188.961636 294.586745 
L 191.071515 417.418506 
L 193.181395 502.390581 
L 195.291275 332.933117 
L 197.401155 501.700166 
L 199.511035 503.539388 
L 201.620915 502.990451 
L 203.730794 505.282405 
L 205.840674 504.077007 
L 207.950554 503.839323 
L 210.060434 505.616294 
L 212.170314 486.958091 
L 214.280194 502.350967 
L 216.390073 501.394572 
L 218.499953 502.345308 
L 220.609833 501.779394 
L 222.719713 501.332321 
L 224.829593 501.796371 
L 226.939473 496.669185 
L 229.049352 499.917535 
L 233.269112 499.985444 
L 235.378992 498.995094 
L 237.488872 498.29336 
L 239.598752 357.601334 
L 241.708632 436.665261 
L 243.818511 494.032023 
L 245.928391 499.046026 
L 248.038271 498.661204 
L 250.148151 475.475684 
L 252.258031 502.79804 
L 254.367911 502.288717 
L 256.47779 501.609619 
L 258.58767 474.689062 
L 260.69755 497.823651 
L 262.80743 366.157963 
L 264.91731 502.707494 
L 267.02719 502.096306 
L 269.137069 500.234447 
L 271.246949 497.36526 
L 273.356829 497.387896 
L 275.466709 499.136572 
L 277.576589 497.710468 
L 279.686469 383.888067 
L 281.796348 492.158846 
L 283.906228 366.978539 
L 286.016108 497.09928 
L 288.125988 496.323977 
L 290.235868 497.851946 
L 292.345748 497.506738 
L 294.455628 495.808995 
L 296.565507 389.552872 
L 298.675387 496.346614 
L 300.785267 497.178508 
L 302.895147 497.42751 
L 305.005027 495.50906 
L 307.114907 474.660767 
L 309.224786 362.0664 
L 311.334666 494.343276 
L 313.444546 495.70713 
L 315.554426 493.58495 
L 317.664306 493.1209 
L 319.774186 496.052338 
L 321.884065 494.139547 
L 323.993945 494.416845 
L 326.103825 492.617236 
L 328.213705 493.805657 
L 330.323585 333.883854 
L 332.433465 369.055445 
L 334.543344 497.704809 
L 336.653224 495.237421 
L 338.763104 488.735062 
L 340.872984 490.749718 
L 342.982864 491.711773 
L 345.092744 492.934149 
L 347.202623 488.921814 
L 349.312503 492.588941 
L 351.422383 495.101601 
L 353.532263 492.719101 
L 355.642143 491.185473 
L 357.752023 493.618905 
L 359.861903 495.384559 
L 361.971782 408.341236 
L 364.081662 488.010692 
L 366.191542 490.376215 
L 368.301422 491.513703 
L 370.411302 494.541346 
L 372.521182 492.707783 
L 374.631061 488.853904 
L 376.740941 492.164505 
L 378.850821 491.660841 
L 380.960701 490.930811 
L 383.070581 488.48606 
L 385.180461 490.285668 
L 387.29034 490.489398 
L 389.40022 492.45878 
L 391.5101 338.954448 
L 393.61998 490.67049 
L 395.72986 489.697117 
L 397.83974 494.875236 
L 399.949619 493.811316 
L 402.059499 490.455443 
L 404.169379 493.58495 
L 406.279259 485.090572 
L 408.389139 494.994078 
L 410.499019 489.54432 
L 412.608899 490.845924 
L 416.828658 491.366565 
L 418.938538 479.27297 
L 421.048418 492.226755 
L 423.158298 350.612289 
L 425.268178 491.00438 
L 427.378057 479.584223 
L 429.487937 492.979422 
L 431.597817 491.836274 
L 433.707697 487.009023 
L 435.817577 494.18482 
L 437.927457 375.976581 
L 440.037336 490.976084 
L 442.147216 493.45479 
L 446.366976 493.392539 
L 448.476856 354.528418 
L 450.586736 360.900616 
L 452.696615 492.651191 
L 454.806495 493.200128 
L 456.916375 494.91485 
L 459.026255 394.340509 
L 461.136135 494.767712 
L 463.246015 491.649522 
L 465.355895 493.234083 
L 467.465774 306.61243 
L 469.575654 287.094036 
L 471.685534 371.80579 
L 473.795414 494.218775 
L 475.905294 494.739416 
L 478.015174 496.290022 
L 480.125053 494.105592 
L 482.234933 487.42214 
L 484.344813 492.911512 
L 486.454693 495.3789 
L 488.564573 494.960123 
L 490.674453 500.160878 
L 492.784332 496.001406 
L 494.894212 482.430774 
L 497.004092 492.798329 
L 499.113972 492.611577 
L 501.223852 294.235878 
L 503.333732 496.148543 
L 505.443611 496.691821 
L 507.553491 323.488003 
L 509.663371 495.537356 
L 511.773251 473.772281 
L 513.883131 494.694143 
L 515.993011 497.733104 
L 518.102891 498.02738 
L 520.21277 496.374909 
L 522.32265 491.20245 
L 524.43253 482.204408 
L 526.54241 357.539083 
L 528.65229 294.456584 
L 530.76217 493.766043 
L 532.872049 497.070984 
L 534.981929 496.708799 
L 537.091809 495.605265 
L 539.201689 495.220444 
L 541.311569 496.742754 
L 543.421449 486.494041 
L 545.531328 495.859927 
L 547.641208 497.868924 
L 549.751088 494.796008 
L 551.860968 362.405949 
L 553.970848 389.29821 
L 556.080728 493.347266 
L 558.190607 300.302482 
L 560.300487 494.954464 
L 562.410367 491.259041 
L 564.520247 311.0492 
L 566.630127 492.832284 
L 568.740007 493.658519 
L 570.849887 269.726117 
L 572.959766 339.169496 
L 575.069646 497.059666 
L 577.179526 370.866372 
L 579.289406 495.939155 
L 581.399286 497.059666 
L 583.509166 499.674191 
L 585.619045 499.108277 
L 587.728925 499.974126 
L 589.838805 499.295029 
L 591.948685 498.847956 
L 594.058565 496.188157 
L 596.168445 496.714458 
L 598.278324 499.476121 
L 600.388204 487.784326 
L 602.498084 499.787374 
L 604.607964 276.66423 
L 606.717844 498.893229 
L 608.827724 320.647111 
L 610.937603 498.842297 
L 613.047483 500.087309 
L 615.157363 500.387244 
L 617.267243 501.717143 
L 619.377123 478.441076 
L 621.487003 499.634577 
L 623.596883 498.208473 
L 625.706762 498.870593 
L 627.816642 500.540041 
L 629.926522 501.620938 
L 632.036402 470.693705 
L 634.146282 495.644879 
L 636.256162 380.690649 
L 638.366041 499.996763 
L 640.475921 503.26209 
L 642.585801 496.290022 
L 644.695681 499.48744 
L 646.805561 500.34763 
L 648.915441 383.101445 
L 651.02532 446.087739 
L 653.1352 405.387162 
L 655.24508 499.22146 
L 657.35496 268.781039 
L 659.46484 502.254762 
L 661.57472 499.328983 
L 663.684599 296.782493 
L 665.794479 421.651547 
L 667.904359 500.466472 
L 670.014239 492.600259 
L 672.124119 364.641312 
L 674.233999 501.241775 
L 676.343879 503.001769 
L 678.453758 499.498758 
L 680.563638 336.968088 
L 682.673518 501.841644 
L 684.783398 502.628265 
L 686.893278 502.107624 
L 689.003158 490.217759 
L 691.113037 504.761763 
L 693.222917 506.453848 
L 695.332797 329.107535 
L 697.442677 500.064672 
L 699.552557 503.488456 
L 701.662437 504.178871 
L 703.772316 507.314038 
L 705.882196 497.846287 
L 707.992076 504.597648 
L 710.101956 506.697191 
L 712.211836 507.200855 
L 714.321716 508.926895 
L 716.431595 505.457838 
L 718.541475 509.164579 
L 720.651355 499.244096 
L 722.761235 508.168569 
L 724.871115 510.313386 
L 729.090874 513.324051 
L 731.200754 510.8793 
L 733.310634 514.138968 
L 735.420514 416.988411 
L 737.530394 513.052412 
L 739.640274 514.025785 
L 741.750154 513.408938 
L 743.860033 421.628911 
L 745.969913 515.248161 
L 748.079793 502.152897 
L 750.189673 512.684568 
L 752.299553 508.242138 
L 754.409433 374.267519 
L 756.519312 508.932554 
L 758.629192 381.01888 
L 760.739072 508.926895 
L 762.848952 508.887281 
L 764.958832 316.48198 
L 767.068712 448.877698 
L 769.178591 418.629563 
L 771.288471 433.077363 
L 773.398351 512.927911 
L 775.508231 371.087079 
L 777.618111 364.771472 
L 779.727991 509.215511 
L 783.94775 510.053065 
L 788.16751 509.656925 
L 790.27739 511.728172 
L 792.38727 498.75741 
L 794.49715 507.053718 
L 796.607029 508.03275 
L 798.716909 315.780246 
L 800.826789 506.210505 
L 802.936669 507.251788 
L 805.046549 508.672233 
L 807.156429 508.208183 
L 809.266308 509.187216 
L 811.376188 509.481491 
L 813.486068 508.858985 
L 815.595948 510.834027 
L 817.705828 511.501806 
L 819.815708 513.844693 
L 821.925587 512.66759 
L 824.035467 501.428527 
L 826.145347 482.628844 
L 828.255227 513.244823 
L 830.365107 517.460887 
L 832.474987 515.706552 
L 834.584866 513.182573 
L 836.694746 514.116332 
L 838.804626 505.587999 
L 840.914506 514.806747 
L 843.024386 491.73441 
L 845.134266 514.45588 
L 847.244146 513.86167 
L 849.354025 508.621301 
L 851.463905 512.288427 
L 853.573785 396.428734 
L 855.683665 407.401818 
L 857.793545 510.783095 
L 859.903425 486.743043 
L 862.013304 512.067721 
L 864.123184 509.990814 
L 866.233064 507.715838 
L 868.342944 508.061046 
L 870.452824 306.997252 
L 872.562704 288.893644 
L 874.672583 394.481988 
L 876.782463 505.678545 
L 878.892343 506.04639 
L 881.002223 503.550706 
L 883.112103 506.278415 
L 885.221983 483.008007 
L 887.331862 507.727156 
L 889.441742 410.157822 
L 891.551622 508.117637 
L 893.661502 493.833953 
L 895.771382 313.307199 
L 897.881262 382.846784 
L 899.991142 500.630587 
L 902.101021 360.696887 
L 904.210901 506.606645 
L 906.320781 506.080344 
L 908.430661 504.116621 
L 910.540541 503.884596 
L 912.650421 502.916882 
L 914.7603 502.073669 
L 916.87018 503.109293 
L 918.98006 481.672448 
L 921.08994 504.880606 
L 923.19982 504.207167 
L 925.3097 368.200914 
L 927.419579 507.806384 
L 929.529459 505.372951 
L 931.639339 502.260421 
L 933.749219 501.281389 
L 935.859099 299.425314 
L 937.968979 503.516751 
L 940.078858 505.633272 
L 942.188738 503.041383 
L 944.298618 365.965552 
L 946.408498 502.447173 
L 948.518378 503.301704 
L 950.628258 501.790712 
L 952.738138 506.578349 
L 954.848017 506.199187 
L 956.957897 505.169222 
L 959.067777 504.280736 
L 961.177657 506.012435 
L 963.287537 492.719101 
L 965.397417 487.49005 
L 967.507296 493.975431 
L 969.617176 499.651555 
L 971.727056 492.962444 
L 973.836936 494.467777 
L 975.946816 498.066994 
L 978.056696 499.572327 
L 980.166575 495.078965 
L 982.276455 496.76539 
L 984.386335 364.069738 
L 986.496215 493.816975 
L 988.606095 498.22545 
L 990.715975 497.727445 
L 992.825854 499.147891 
L 994.935734 497.246418 
L 997.045614 497.155871 
L 999.155494 397.549245 
L 1001.265374 498.983776 
L 1003.375254 337.924484 
L 1005.485134 497.919856 
L 1007.595013 500.240106 
L 1009.704893 492.481417 
L 1011.814773 495.627902 
L 1013.924653 497.682172 
L 1016.034533 461.723959 
L 1018.144413 491.338269 
L 1020.254292 494.592278 
L 1022.364172 495.593947 
L 1024.474052 495.237421 
L 1026.583932 495.990087 
L 1028.693812 352.508103 
L 1030.803692 496.56732 
L 1032.913571 488.978406 
L 1035.023451 340.488077 
L 1037.133331 371.07576 
L 1039.243211 494.971441 
L 1041.353091 397.503972 
L 1043.462971 493.217106 
L 1045.57285 295.407321 
L 1047.68273 499.436507 
L 1049.79261 498.265064 
L 1051.90249 499.204482 
L 1054.01237 502.06801 
L 1056.12225 497.404874 
L 1058.23213 502.973473 
L 1060.342009 501.00975 
L 1062.451889 373.384692 
L 1064.561769 500.483449 
L 1066.671649 504.580671 
L 1068.781529 366.740855 
L 1070.891409 509.617311 
L 1073.001288 505.129608 
L 1075.111168 506.731146 
L 1077.221048 509.956859 
L 1081.440808 513.963535 
L 1083.550688 520.48853 
L 1085.660567 526.147676 
L 1087.770447 388.545544 
L 1089.880327 538.105451 
L 1091.990207 541.2293 
L 1094.100087 547.12613 
L 1096.209967 545.043564 
L 1098.319846 458.532201 
L 1100.429726 476.267964 
L 1102.539606 565.444785 
L 1104.649486 574.465463 
L 1106.759366 576.134911 
L 1108.869246 583.112638 
L 1110.979126 588.754807 
L 1113.089005 595.658965 
L 1115.198885 599.326091 
L 1117.308765 579.45683 
L 1119.418645 603.870385 
L 1121.528525 616.55819 
L 1123.638405 613.219294 
L 1125.748284 607.175326 
L 1127.858164 631.713383 
L 1129.968044 623.009617 
L 1132.077924 644.197459 
L 1134.187804 626.314558 
L 1136.297684 648.441818 
L 1138.407563 638.306288 
L 1140.517443 644.135208 
L 1142.627323 643.048652 
L 1144.737203 639.987054 
L 1146.847083 639.477731 
L 1148.956963 623.224664 
L 1151.066842 637.106549 
L 1153.176722 640.292648 
L 1155.286602 622.924729 
L 1157.396482 637.678123 
L 1159.506362 643.05997 
L 1161.616242 644.910511 
L 1163.726121 642.086597 
L 1165.836001 642.499715 
L 1167.945881 635.488033 
L 1170.055761 611.804508 
L 1172.165641 631.317243 
L 1174.275521 622.687045 
L 1176.385401 619.710335 
L 1178.49528 621.719331 
L 1180.60516 613.881414 
L 1182.71504 582.093992 
L 1184.82492 616.36012 
L 1186.9348 614.741604 
L 1189.04468 581.77708 
L 1191.154559 600.463579 
L 1193.264439 590.237503 
L 1195.374319 588.596351 
L 1197.484199 580.583 
L 1199.594079 573.735433 
L 1201.703959 567.917831 
L 1203.813838 568.161175 
L 1205.923718 553.622829 
L 1208.033598 561.528656 
L 1210.143478 548.178731 
L 1212.253358 547.91841 
L 1214.363238 538.869436 
L 1216.473117 527.217254 
L 1218.582997 524.138679 
L 1220.692877 523.153988 
L 1222.802757 523.13701 
L 1224.912637 524.415977 
L 1227.022517 517.709889 
L 1229.132397 518.264486 
L 1231.242276 519.339723 
L 1233.352156 382.512894 
L 1235.462036 520.148981 
L 1237.571916 519.328405 
L 1239.681796 519.311428 
L 1241.791676 523.153988 
L 1243.901555 523.125692 
L 1246.011435 525.185621 
L 1248.121315 522.395662 
L 1250.231195 501.315344 
L 1252.341075 526.990888 
L 1254.450955 532.101097 
L 1258.670714 537.867767 
L 1260.780594 541.732963 
L 1262.890474 544.692697 
L 1265.000354 544.262602 
L 1267.110234 544.330511 
L 1269.220113 537.528218 
L 1271.329993 541.35946 
L 1273.439873 541.863124 
L 1275.549753 547.012947 
L 1277.659633 543.628777 
L 1279.769513 542.015921 
L 1281.879393 530.369399 
L 1283.989272 459.183003 
L 1286.099152 537.765902 
L 1288.209032 541.433029 
L 1290.318912 540.148403 
L 1292.428792 539.141075 
L 1294.538672 535.683337 
L 1296.648551 539.271235 
L 1298.758431 539.76924 
L 1300.868311 540.719976 
L 1302.978191 539.333486 
L 1305.088071 542.383765 
L 1307.197951 542.429038 
L 1309.30783 539.746603 
L 1311.41771 538.297862 
L 1315.63747 534.319482 
L 1317.74735 532.536851 
L 1319.85723 395.78925 
L 1321.967109 417.424165 
L 1324.076989 534.517552 
L 1326.186869 537.267897 
L 1328.296749 525.378032 
L 1330.406629 536.685005 
L 1332.516509 537.143396 
L 1334.626389 539.044869 
L 1336.736268 512.441224 
L 1338.846148 531.206952 
L 1340.956028 535.615427 
L 1343.065908 534.353437 
L 1345.175788 529.814802 
L 1347.285668 531.772867 
L 1349.395547 502.967814 
L 1351.505427 532.559488 
L 1353.615307 535.360765 
L 1355.725187 536.475617 
L 1357.835067 535.666359 
L 1359.944947 529.899689 
L 1362.054826 530.307148 
L 1364.164706 533.93466 
L 1366.274586 533.906365 
L 1368.384466 535.241923 
L 1370.494346 533.515884 
L 1372.604226 522.582414 
L 1374.714105 533.962956 
L 1376.823985 533.187653 
L 1378.933865 531.908686 
L 1381.043745 534.472279 
L 1383.153625 535.79086 
L 1385.263505 533.289518 
L 1387.373385 529.673324 
L 1389.483264 531.422 
L 1391.593144 532.842445 
L 1393.703024 533.504565 
L 1395.812904 526.577771 
L 1397.922784 521.835407 
L 1400.032664 531.15602 
L 1402.142543 531.076792 
L 1406.362303 535.870088 
L 1408.472183 541.727304 
L 1410.582063 540.380428 
L 1412.691943 540.244608 
L 1414.801822 538.77323 
L 1416.911702 543.351479 
L 1419.021582 543.866461 
L 1421.131462 532.831127 
L 1423.241342 451.967592 
L 1425.351222 543.447685 
L 1427.461101 545.111474 
L 1429.570981 535.739928 
L 1431.680861 534.081798 
L 1433.790741 517.596706 
L 1435.900621 534.659031 
L 1438.010501 539.424032 
L 1440.120381 543.193023 
L 1442.23026 542.802542 
L 1444.34014 539.242939 
L 1446.45002 391.624119 
L 1448.5599 541.659395 
L 1450.66978 546.877127 
L 1452.77966 536.679346 
L 1454.889539 549.214354 
L 1456.999419 543.696687 
L 1459.109299 543.572186 
L 1461.219179 547.194039 
L 1463.329059 548.7786 
L 1465.438939 548.122139 
L 1467.548818 527.31346 
L 1469.658698 546.962014 
L 1471.768578 545.043564 
L 1473.878458 545.377453 
L 1475.988338 543.442026 
L 1478.098218 541.053866 
L 1480.208097 521.003512 
L 1482.317977 545.235975 
L 1484.427857 538.156383 
L 1486.537737 538.17902 
L 1488.647617 540.618112 
L 1490.757497 540.838818 
L 1492.867377 537.398058 
L 1494.977256 535.46263 
L 1497.087136 346.073654 
L 1499.197016 539.446669 
L 1501.306896 544.375785 
L 1503.416776 552.321225 
L 1505.526656 549.299242 
L 1507.636535 544.228647 
L 1509.746415 537.109441 
L 1511.856295 542.966657 
L 1513.966175 541.150071 
L 1516.076055 541.09348 
L 1518.185935 509.775767 
L 1520.295814 536.85478 
L 1522.405694 531.784185 
L 1524.515574 528.196287 
L 1526.625454 524.851731 
L 1528.735334 525.8534 
L 1530.845214 529.124386 
L 1532.955093 528.496221 
L 1535.064973 512.197881 
L 1537.174853 525.395009 
L 1539.284733 492.147527 
L 1541.394613 523.827426 
L 1543.504493 524.325431 
L 1545.614372 522.169296 
L 1547.724252 521.761838 
L 1549.834132 518.490851 
L 1551.944012 521.229878 
L 1554.053892 491.785342 
L 1556.163772 524.155656 
L 1558.273652 524.52916 
L 1560.383531 520.081071 
L 1562.493411 518.179598 
L 1564.603291 545.756616 
L 1566.713171 514.235174 
L 1568.823051 554.505656 
L 1570.932931 522.848394 
L 1573.04281 520.726214 
L 1575.15269 516.204556 
L 1577.26257 517.347704 
L 1579.37245 517.194907 
L 1581.48233 511.54142 
L 1583.59221 514.020126 
L 1585.702089 512.633635 
L 1587.811969 501.072 
L 1589.921849 429.613965 
L 1592.031729 510.420909 
L 1594.141609 369.81943 
L 1596.251489 507.63095 
L 1598.361368 506.584008 
L 1600.471248 502.922541 
L 1602.581128 506.453848 
L 1604.691008 483.019325 
L 1606.800888 505.820024 
L 1608.910768 506.204846 
L 1611.020648 502.39624 
L 1613.130527 505.288064 
L 1615.240407 505.372951 
L 1617.350287 502.831995 
L 1619.460167 292.441928 
L 1621.570047 370.136342 
L 1623.679927 505.106971 
L 1625.789806 507.206514 
L 1627.899686 508.802394 
L 1630.009566 510.669912 
L 1632.119446 514.580382 
L 1634.229326 509.572037 
L 1636.339206 511.903606 
L 1638.449085 512.169585 
L 1640.558965 361.681578 
L 1642.668845 356.016773 
L 1644.778725 510.590684 
L 1646.888605 513.018457 
L 1648.998485 512.763796 
L 1651.108364 508.468504 
L 1653.218244 512.763796 
L 1655.328124 513.940898 
L 1657.438004 517.064747 
L 1659.547884 515.276457 
L 1661.657764 515.814075 
L 1663.767644 513.137299 
L 1665.877523 516.628992 
L 1667.987403 486.426131 
L 1670.097283 516.063078 
L 1672.207163 516.696902 
L 1674.317043 516.640311 
L 1676.426923 516.130988 
L 1678.536802 516.612015 
L 1680.646682 515.84803 
L 1682.756562 520.562099 
L 1684.866442 519.464224 
L 1686.976322 519.967888 
L 1689.086202 515.757484 
L 1691.196081 519.554771 
L 1693.305961 516.815744 
L 1695.415841 493.703792 
L 1697.525721 520.839397 
L 1699.635601 518.072075 
L 1701.745481 494.756394 
L 1703.85536 514.184241 
L 1705.96524 517.794776 
L 1708.07512 507.427221 
L 1710.185 518.055097 
L 1710.185 518.055097 
" style="fill:none;stroke:#1f77b4;stroke-linecap:square;stroke-width:1.5;"/>
   </g>
   <g id="patch_3">
    <path d="M 50.87 678.04 
L 50.87 26.88 
" style="fill:none;stroke:#000000;stroke-linecap:square;stroke-linejoin:miter;stroke-width:0.8;"/>
   </g>
   <g id="patch_4">
    <path d="M 1789.2 678.04 
L 1789.2 26.88 
" style="fill:none;stroke:#000000;stroke-linecap:square;stroke-linejoin:miter;stroke-width:0.8;"/>
   </g>
   <g id="patch_5">
    <path d="M 50.87 678.04 
L 1789.2 678.04 
" style="fill:none;stroke:#000000;stroke-linecap:square;stroke-linejoin:miter;stroke-width:0.8;"/>
   </g>
   <g id="patch_6">
    <path d="M 50.87 26.88 
L 1789.2 26.88 
" style="fill:none;stroke:#000000;stroke-linecap:square;stroke-linejoin:miter;stroke-width:0.8;"/>
   </g>
   <g id="text_17">
    <!-- Plot of Time Taken for Identifying Features in Each Frame -->
    <defs>
     <path d="M 19.671875 64.796875 
L 19.671875 37.40625 
L 32.078125 37.40625 
Q 38.96875 37.40625 42.71875 40.96875 
Q 46.484375 44.53125 46.484375 51.125 
Q 46.484375 57.671875 42.71875 61.234375 
Q 38.96875 64.796875 32.078125 64.796875 
z
M 9.8125 72.90625 
L 32.078125 72.90625 
Q 44.34375 72.90625 50.609375 67.359375 
Q 56.890625 61.8125 56.890625 51.125 
Q 56.890625 40.328125 50.609375 34.8125 
Q 44.34375 29.296875 32.078125 29.296875 
L 19.671875 29.296875 
L 19.671875 0 
L 9.8125 0 
z
" id="DejaVuSans-80"/>
     <path d="M 9.421875 75.984375 
L 18.40625 75.984375 
L 18.40625 0 
L 9.421875 0 
z
" id="DejaVuSans-108"/>
     <path d="M 9.8125 72.90625 
L 55.90625 72.90625 
L 55.90625 64.59375 
L 19.671875 64.59375 
L 19.671875 43.015625 
L 54.390625 43.015625 
L 54.390625 34.71875 
L 19.671875 34.71875 
L 19.671875 8.296875 
L 56.78125 8.296875 
L 56.78125 0 
L 9.8125 0 
z
" id="DejaVuSans-69"/>
     <path d="M 48.78125 52.59375 
L 48.78125 44.1875 
Q 44.96875 46.296875 41.140625 47.34375 
Q 37.3125 48.390625 33.40625 48.390625 
Q 24.65625 48.390625 19.8125 42.84375 
Q 14.984375 37.3125 14.984375 27.296875 
Q 14.984375 17.28125 19.8125 11.734375 
Q 24.65625 6.203125 33.40625 6.203125 
Q 37.3125 6.203125 41.140625 7.25 
Q 44.96875 8.296875 48.78125 10.40625 
L 48.78125 2.09375 
Q 45.015625 0.34375 40.984375 -0.53125 
Q 36.96875 -1.421875 32.421875 -1.421875 
Q 20.0625 -1.421875 12.78125 6.34375 
Q 5.515625 14.109375 5.515625 27.296875 
Q 5.515625 40.671875 12.859375 48.328125 
Q 20.21875 56 33.015625 56 
Q 37.15625 56 41.109375 55.140625 
Q 45.0625 54.296875 48.78125 52.59375 
z
" id="DejaVuSans-99"/>
     <path d="M 54.890625 33.015625 
L 54.890625 0 
L 45.90625 0 
L 45.90625 32.71875 
Q 45.90625 40.484375 42.875 44.328125 
Q 39.84375 48.1875 33.796875 48.1875 
Q 26.515625 48.1875 22.3125 43.546875 
Q 18.109375 38.921875 18.109375 30.90625 
L 18.109375 0 
L 9.078125 0 
L 9.078125 75.984375 
L 18.109375 75.984375 
L 18.109375 46.1875 
Q 21.34375 51.125 25.703125 53.5625 
Q 30.078125 56 35.796875 56 
Q 45.21875 56 50.046875 50.171875 
Q 54.890625 44.34375 54.890625 33.015625 
z
" id="DejaVuSans-104"/>
    </defs>
    <g transform="translate(749.290938 20.88)scale(0.12 -0.12)">
     <use xlink:href="#DejaVuSans-80"/>
     <use x="60.302734" xlink:href="#DejaVuSans-108"/>
     <use x="88.085938" xlink:href="#DejaVuSans-111"/>
     <use x="149.267578" xlink:href="#DejaVuSans-116"/>
     <use x="188.476562" xlink:href="#DejaVuSans-32"/>
     <use x="220.263672" xlink:href="#DejaVuSans-111"/>
     <use x="281.445312" xlink:href="#DejaVuSans-102"/>
     <use x="316.650391" xlink:href="#DejaVuSans-32"/>
     <use x="348.4375" xlink:href="#DejaVuSans-84"/>
     <use x="406.396484" xlink:href="#DejaVuSans-105"/>
     <use x="434.179688" xlink:href="#DejaVuSans-109"/>
     <use x="531.591797" xlink:href="#DejaVuSans-101"/>
     <use x="593.115234" xlink:href="#DejaVuSans-32"/>
     <use x="624.902344" xlink:href="#DejaVuSans-84"/>
     <use x="669.486328" xlink:href="#DejaVuSans-97"/>
     <use x="730.765625" xlink:href="#DejaVuSans-107"/>
     <use x="785.050781" xlink:href="#DejaVuSans-101"/>
     <use x="846.574219" xlink:href="#DejaVuSans-110"/>
     <use x="909.953125" xlink:href="#DejaVuSans-32"/>
     <use x="941.740234" xlink:href="#DejaVuSans-102"/>
     <use x="976.945312" xlink:href="#DejaVuSans-111"/>
     <use x="1038.126953" xlink:href="#DejaVuSans-114"/>
     <use x="1079.240234" xlink:href="#DejaVuSans-32"/>
     <use x="1111.027344" xlink:href="#DejaVuSans-73"/>
     <use x="1140.519531" xlink:href="#DejaVuSans-100"/>
     <use x="1203.996094" xlink:href="#DejaVuSans-101"/>
     <use x="1265.519531" xlink:href="#DejaVuSans-110"/>
     <use x="1328.898438" xlink:href="#DejaVuSans-116"/>
     <use x="1368.107422" xlink:href="#DejaVuSans-105"/>
     <use x="1395.890625" xlink:href="#DejaVuSans-102"/>
     <use x="1429.345703" xlink:href="#DejaVuSans-121"/>
     <use x="1488.525391" xlink:href="#DejaVuSans-105"/>
     <use x="1516.308594" xlink:href="#DejaVuSans-110"/>
     <use x="1579.6875" xlink:href="#DejaVuSans-103"/>
     <use x="1643.164062" xlink:href="#DejaVuSans-32"/>
     <use x="1674.951172" xlink:href="#DejaVuSans-70"/>
     <use x="1726.970703" xlink:href="#DejaVuSans-101"/>
     <use x="1788.494141" xlink:href="#DejaVuSans-97"/>
     <use x="1849.773438" xlink:href="#DejaVuSans-116"/>
     <use x="1888.982422" xlink:href="#DejaVuSans-117"/>
     <use x="1952.361328" xlink:href="#DejaVuSans-114"/>
     <use x="1991.224609" xlink:href="#DejaVuSans-101"/>
     <use x="2052.748047" xlink:href="#DejaVuSans-115"/>
     <use x="2104.847656" xlink:href="#DejaVuSans-32"/>
     <use x="2136.634766" xlink:href="#DejaVuSans-105"/>
     <use x="2164.417969" xlink:href="#DejaVuSans-110"/>
     <use x="2227.796875" xlink:href="#DejaVuSans-32"/>
     <use x="2259.583984" xlink:href="#DejaVuSans-69"/>
     <use x="2322.767578" xlink:href="#DejaVuSans-97"/>
     <use x="2384.046875" xlink:href="#DejaVuSans-99"/>
     <use x="2439.027344" xlink:href="#DejaVuSans-104"/>
     <use x="2502.40625" xlink:href="#DejaVuSans-32"/>
     <use x="2534.193359" xlink:href="#DejaVuSans-70"/>
     <use x="2584.462891" xlink:href="#DejaVuSans-114"/>
     <use x="2625.576172" xlink:href="#DejaVuSans-97"/>
     <use x="2686.855469" xlink:href="#DejaVuSans-109"/>
     <use x="2784.267578" xlink:href="#DejaVuSans-101"/>
    </g>
   </g>
  </g>
 </g>
 <defs>
  <clipPath id="pba16a64b30">
   <rect height="651.16" width="1738.33" x="50.87" y="26.88"/>
  </clipPath>
 </defs>
</svg>
